<?xml version="1.0" encoding="utf-8"?>
<!-- Generator: Adobe Illustrator 27.2.0, SVG Export Plug-In . SVG Version: 6.00 Build 0)  -->
<svg version="1.1" xmlns="http://www.w3.org/2000/svg" xmlns:xlink="http://www.w3.org/1999/xlink" x="0px" y="0px"
	 viewBox="0 0 282 406.7" style="enable-background:new 0 0 282 406.7;" xml:space="preserve">
<style type="text/css">
	.st0{fill:#FFFFFF;}
	.st1{fill:none;stroke:#D6D6D6;stroke-miterlimit:10;}
	.st2{fill:#FF7900;}
	.st3{fill:#FFD200;}
	.st4{fill-rule:evenodd;clip-rule:evenodd;}
	.st5{fill-rule:evenodd;clip-rule:evenodd;fill:#FF7900;}
	.st6{fill:none;stroke:#8F8F8F;stroke-miterlimit:10;}
	.st7{fill-rule:evenodd;clip-rule:evenodd;fill:#FFFFFF;}
</style>
<g id="Calque_1">
</g>
<g id="Calque_2">
	<g>
		<g>
			<g>
				<g id="Layer_1-2_00000118398069785638976780000003111825301602879115_">
					<g id="Layer_2-2_00000036229674442035194640000009932782972832933253_">
						<g id="Calque_1_00000026885549429511328870000011815862311488465066_">
							<rect x="0.5" y="13.3" class="st0" width="281" height="392.9"/>
							<rect x="0.5" y="13.3" class="st1" width="281" height="392.9"/>
							<rect x="15" y="324.8" class="st2" width="249.9" height="47"/>
							<rect x="28.1" class="st3" width="224.6" height="30"/>
							<path d="M153.9,62c1.6-0.1,3.3,0.5,4.4,1.7c1.1,1.3,1.7,3,1.6,4.8c0.1,1.8-0.5,3.5-1.6,4.9c-1.1,1.2-2.7,1.8-4.3,1.8h-5.7V62
								H153.9z M153.7,72.7c0.9,0.1,1.8-0.3,2.4-1c0.6-0.8,0.9-1.9,0.9-2.9c0.1-1.2-0.2-2.3-0.9-3.2c-0.7-0.8-1.8-1.2-2.9-1.1h-2.1
								v8.3L153.7,72.7z"/>
							<path d="M164.2,62v5h0.1c0.6-1,1.7-1.6,2.8-1.6c1-0.1,1.9,0.2,2.6,0.9c0.6,0.8,0.9,1.9,0.8,2.9v6H168v-5.4
								c0-0.6-0.1-1.2-0.4-1.7c-0.3-0.4-0.8-0.6-1.3-0.6c-0.6-0.1-1.2,0.2-1.5,0.6c-0.4,0.6-0.6,1.4-0.5,2.1v5h-2.6V62H164.2z"/>
							<path d="M178.6,61.7l-5.1,13.8h-2.1l5.1-13.8H178.6z"/>
							<path d="M184.9,65.4c1.2-0.1,2.3,0.5,2.8,1.6c0.6-1,1.7-1.6,2.9-1.6c1-0.1,1.9,0.2,2.6,0.9c0.6,0.7,0.9,1.6,0.8,2.5v6.4h-2.6
								v-5.5c0.1-0.6-0.1-1.2-0.4-1.7c-0.3-0.3-0.8-0.5-1.2-0.5c-1.2,0-1.8,0.8-1.8,2.4v5.3h-2.6v-5.6c0.1-0.6-0.1-1.2-0.4-1.7
								c-0.3-0.3-0.8-0.5-1.2-0.4c-0.5,0-1,0.2-1.3,0.6c-0.4,0.4-0.5,1-0.5,1.6v5.5h-2.6v-9.5h2.5V67l0,0
								C182.6,65.9,183.7,65.4,184.9,65.4z"/>
							<path d="M200.7,65.4c1.3-0.1,2.7,0.4,3.6,1.4c0.9,1,1.4,2.3,1.3,3.6c0.1,1.3-0.4,2.7-1.4,3.6s-2.2,1.4-3.6,1.4
								c-1.3,0.1-2.6-0.4-3.6-1.4c-1.8-2.1-1.8-5.2,0-7.3C198.1,65.8,199.4,65.3,200.7,65.4z M198.4,70.4c0,0.8,0.2,1.6,0.6,2.2
								c0.8,1,2.2,1.1,3.2,0.3l0,0c0.1-0.1,0.2-0.2,0.3-0.3c0.8-1.4,0.8-3.1,0-4.5c-0.4-0.5-1.1-0.8-1.7-0.8c-0.7,0-1.3,0.3-1.7,0.8
								C198.6,68.8,198.4,69.6,198.4,70.4L198.4,70.4z"/>
							<path d="M210,62v2.2h-2.6V62H210z M210,65.6v9.5h-2.6v-9.5H210z"/>
							<path d="M216,65.4c1.1-0.1,2.1,0.2,3,0.8c0.7,0.5,1.2,1.4,1.2,2.3h-2.5c0-0.4-0.2-0.8-0.5-1c-0.4-0.2-0.8-0.3-1.3-0.3
								c-0.4,0-0.8,0.1-1.1,0.2c-0.2,0.1-0.4,0.4-0.4,0.7c0,0.2,0.1,0.4,0.2,0.6c0.2,0.2,0.5,0.3,0.7,0.4c0.4,0.1,0.7,0.2,1.1,0.3
								c0.9,0.2,1.7,0.4,2.5,0.8c0.4,0.2,0.8,0.5,1.1,0.9c0.2,0.4,0.4,0.8,0.3,1.3c0,1-0.4,1.9-1.2,2.5c-2,1.2-4.5,1.2-6.4,0
								c-0.8-0.6-1.2-1.5-1.2-2.4h2.5c0,0.5,0.2,0.9,0.6,1.2c0.4,0.3,0.9,0.4,1.4,0.4c0.4,0,0.9-0.1,1.2-0.3
								c0.3-0.2,0.5-0.5,0.5-0.9c0-0.2-0.1-0.5-0.3-0.6c-0.3-0.2-0.6-0.3-0.9-0.4c-0.4-0.1-0.9-0.3-1.7-0.4
								c-0.6-0.1-1.1-0.3-1.6-0.5c-0.4-0.2-0.8-0.5-1.1-0.8c-0.3-0.4-0.4-0.8-0.4-1.2c0-0.6,0.1-1.1,0.4-1.6
								c0.3-0.5,0.8-0.9,1.4-1.1C214.4,65.5,215.2,65.4,216,65.4z"/>
							<path class="st0" d="M94.6,341.5v10.3c0,3.3-1.7,5-5,5c-1.3,0.1-2.6-0.4-3.6-1.2c-0.9-0.9-1.4-2.1-1.4-3.4v-1.3h3v0.7
								c-0.1,0.7,0.1,1.3,0.5,1.9c0.4,0.4,0.9,0.6,1.4,0.5c0.5,0,1-0.1,1.3-0.5c0.3-0.5,0.5-1.2,0.4-1.8v-10.2H94.6z"/>
							<path class="st0" d="M100.1,341.5v6.7h-2.2v-6.7H100.1z"/>
							<path class="st0" d="M108,345.4c1,0,1.9,0.2,2.7,0.7c0.8,0.5,1.5,1.2,1.9,2.1c0.5,1,0.7,2,0.7,3.1v0.5h-7.8
								c0,0.7,0.2,1.4,0.7,2c0.5,0.5,1.3,0.8,2,0.7c0.5,0,1-0.1,1.5-0.4c0.4-0.2,0.7-0.6,0.9-1h2.5c-0.6,2.3-2.7,3.8-5.1,3.6
								c-1,0-1.9-0.2-2.8-0.6s-1.6-1.1-2-2c-0.5-0.9-0.8-2-0.8-3.1c0-1,0.3-2.1,0.8-3c0.5-0.8,1.2-1.5,2-2
								C106.1,345.6,107,345.3,108,345.4z M110.3,349.9c-0.1-0.7-0.3-1.3-0.8-1.8c-0.4-0.4-1-0.6-1.6-0.5c-0.6,0-1.3,0.2-1.7,0.6
								c-0.4,0.5-0.7,1.1-0.7,1.7L110.3,349.9L110.3,349.9z"/>
							<path class="st0" d="M121.2,345.4c1.1-0.1,2.2,0.3,3,1c0.7,1,1,2.1,0.9,3.3v6.7h-3v-6.1c0-0.7-0.1-1.4-0.4-2
								c-0.3-0.5-0.9-0.7-1.5-0.6c-0.7-0.1-1.3,0.2-1.8,0.7c-0.4,0.7-0.6,1.6-0.5,2.4v5.6h-3v-10.8h2.8v1.5h0.1
								C118.5,346,119.8,345.3,121.2,345.4z"/>
							<path class="st0" d="M139.3,345.4c1.4,0,2.7,0.5,3.6,1.6c1,1.2,1.4,2.7,1.3,4.2c0.1,1.4-0.4,2.9-1.3,4
								c-0.8,1-2.1,1.6-3.5,1.6c-1.3,0.1-2.5-0.6-3.2-1.6l0,0v5.1h-3v-14.6h2.8v1.4l0,0C136.8,345.9,138,345.3,139.3,345.4z
								 M136.1,351.1c-0.1,0.9,0.2,1.8,0.7,2.5c0.4,0.6,1.2,1,1.9,0.9c0.8,0,1.5-0.3,1.9-0.9c0.9-1.6,0.9-3.5-0.1-5.1
								c-0.4-0.6-1.2-1-1.9-0.9c-0.7,0-1.5,0.3-1.9,0.9C136.3,349.3,136,350.2,136.1,351.1z"/>
							<path class="st0" d="M152.3,345.4c0.2,0,0.4,0,0.6,0.1v2.8c-0.4-0.1-0.7-0.1-1.1-0.1c-2,0-2.9,1.1-2.9,3.5v4.9h-3v-10.8h2.8
								v2l0,0C149.4,346.3,150.8,345.4,152.3,345.4L152.3,345.4z"/>
							<path class="st0" d="M159.4,345.4c1.5-0.1,3,0.5,4.1,1.6c1,1.1,1.6,2.6,1.5,4.1c0.1,1.5-0.5,3-1.5,4.1
								c-1.1,1.1-2.6,1.6-4.1,1.6c-1.5,0.1-3-0.5-4.1-1.6c-2-2.4-2-5.9,0-8.3C156.4,345.9,157.9,345.3,159.4,345.4z M156.8,351.1
								c-0.1,0.9,0.2,1.8,0.7,2.5c0.9,1.1,2.6,1.2,3.7,0.3c0.1-0.1,0.2-0.2,0.3-0.3c0.9-1.6,0.9-3.5,0-5.1c-0.5-0.6-1.2-1-2-0.9
								c-0.8,0-1.5,0.3-1.9,0.9C157,349.3,156.7,350.2,156.8,351.1L156.8,351.1z"/>
							<path class="st0" d="M171.2,341.5c0.5,0,1,0,1.6,0.1v2.2c-0.4,0-0.7-0.1-1.1-0.1c-0.3,0-0.6,0.1-0.9,0.3
								c-0.2,0.3-0.3,0.6-0.2,1v0.6h2.1v2h-2.1v8.8h-3v-8.8h-1.8v-2h1.8v-0.8c0-0.9,0.3-1.8,1-2.5
								C169.3,341.8,170.3,341.5,171.2,341.5z M177,341.5v2.5h-3v-2.5H177z M177,345.7v10.8h-3v-10.8H177z"/>
							<path class="st0" d="M183.1,342.4v3.2h2.2v2h-2.2v5.3c-0.2,0.5,0.1,1.1,0.6,1.3c0.2,0.1,0.4,0.1,0.6,0c0.3,0,0.6,0,0.9-0.1
								v2.3c-0.6,0.1-1.2,0.1-1.8,0.1c-0.9,0-1.7-0.2-2.5-0.6c-0.6-0.5-0.9-1.2-0.8-2v-6.4h-1.8v-2h1.8v-3.2L183.1,342.4z"/>
							<path class="st0" d="M191.7,345.4c1,0,1.9,0.2,2.7,0.7s1.5,1.2,1.9,2.1c0.5,1,0.7,2,0.7,3.1v0.5h-7.8c0,0.7,0.2,1.4,0.7,2
								c0.5,0.5,1.3,0.8,2,0.7c0.5,0,1-0.1,1.5-0.4c0.4-0.2,0.7-0.6,0.9-1h2.6c-0.6,2.3-2.7,3.8-5.1,3.6c-1,0-1.9-0.2-2.8-0.6
								c-0.9-0.4-1.6-1.1-2-2c-0.5-0.9-0.8-2-0.8-3.1c0-1,0.3-2.1,0.8-3c0.5-0.8,1.2-1.5,2-2C189.8,345.6,190.8,345.4,191.7,345.4z
								 M194,349.9c-0.1-0.7-0.3-1.3-0.8-1.8c-0.4-0.4-1-0.6-1.6-0.5c-0.6,0-1.3,0.2-1.7,0.6c-0.4,0.5-0.7,1.1-0.7,1.7L194,349.9
								L194,349.9z"/>
							<path d="M73,197.4v10h-1.2v-1l0,0c-0.2,0.4-0.5,0.7-0.9,0.9s-0.9,0.3-1.4,0.3c-0.9,0.1-1.8-0.3-2.4-1c-1.2-1.6-1.2-3.9,0-5.5
								c0.6-0.7,1.5-1,2.4-1c0.5,0,0.9,0.1,1.4,0.3c0.4,0.2,0.8,0.5,1,0.8l0,0v-3.7L73,197.4z M67.4,203.8c0,0.7,0.2,1.4,0.6,1.9
								s1,0.8,1.6,0.7c0.6,0,1.2-0.3,1.6-0.8c0.8-1.2,0.8-2.8,0-4c-0.4-0.5-1-0.8-1.7-0.8c-0.6,0-1.2,0.3-1.6,0.8
								C67.6,202.3,67.3,203.1,67.4,203.8L67.4,203.8z"/>
							<path d="M76.3,197.4v3.6h-1v-3.6H76.3z"/>
							<path d="M81.7,200c1.8,0,2.7,0.6,2.7,1.9v4.2c0,0.3,0.1,0.4,0.4,0.4c0.1,0,0.2,0,0.4-0.1v0.9c-0.3,0.1-0.6,0.2-0.8,0.2
								c-0.7,0-1-0.4-1-1.1c-0.6,0.7-1.6,1.2-2.6,1.1c-0.6,0-1.2-0.2-1.7-0.6c-0.4-0.4-0.7-0.9-0.6-1.5c0-0.6,0.2-1.1,0.6-1.5
								c0.9-0.5,1.9-0.8,2.9-0.9c0.4,0,0.7-0.1,1.1-0.3c0.2-0.1,0.3-0.4,0.3-0.6c0-0.8-0.5-1.2-1.6-1.2c-0.5,0-0.9,0.1-1.3,0.3
								c-0.3,0.2-0.5,0.6-0.5,1h-1.2C78.7,200.8,79.7,200,81.7,200z M79.6,205.5c0,0.3,0.1,0.6,0.4,0.8s0.6,0.3,1,0.3
								c0.6,0,1.1-0.1,1.6-0.5c0.4-0.3,0.6-0.7,0.6-1.1v-1.2c-0.3,0.2-0.5,0.3-0.8,0.3l-1.2,0.2c-0.4,0-0.8,0.2-1.2,0.4
								C79.7,204.8,79.6,205.1,79.6,205.5L79.6,205.5z"/>
							<path d="M89.8,200c0.9-0.1,1.8,0.3,2.4,1c0.6,0.8,1,1.8,0.9,2.8c0,1-0.3,2-0.9,2.7s-1.5,1-2.4,1c-0.5,0-0.9-0.1-1.3-0.3
								s-0.8-0.5-1-0.9l0,0v3.7h-1.2v-10h1.2v1l0,0C87.9,200.3,88.9,199.9,89.8,200z M87.4,203.8c0,0.7,0.2,1.4,0.6,2
								c0.4,0.5,1,0.8,1.7,0.7c0.6,0,1.2-0.2,1.6-0.7c0.4-0.6,0.6-1.3,0.6-2.1c0-0.7-0.2-1.4-0.6-1.9c-0.8-0.9-2.1-1-3-0.2
								c-0.1,0.1-0.2,0.1-0.2,0.2C87.6,202.4,87.4,203.1,87.4,203.8L87.4,203.8z"/>
							<path d="M98.1,200c0.9-0.1,1.8,0.3,2.4,1c0.6,0.8,0.9,1.8,0.9,2.8s-0.3,2-0.9,2.7s-1.5,1-2.4,1c-0.5,0-0.9-0.1-1.3-0.3
								s-0.8-0.5-1-0.9l0,0v3.7h-1.2v-10h1.2v1l0,0C96.2,200.3,97.2,199.9,98.1,200z M95.7,203.8c0,0.7,0.2,1.4,0.6,2
								c0.4,0.5,1,0.8,1.7,0.7c0.6,0,1.2-0.3,1.6-0.7c0.4-0.6,0.6-1.3,0.6-2.1c0-0.7-0.2-1.4-0.6-1.9s-1-0.8-1.6-0.8
								s-1.2,0.3-1.6,0.7C95.9,202.3,95.7,203,95.7,203.8L95.7,203.8z"/>
							<path d="M105.8,200c0.9,0,1.8,0.4,2.4,1.1c0.6,0.8,0.9,1.9,0.9,2.9v0.1h-5.4v0.1c0,0.6,0.2,1.2,0.6,1.7
								c0.4,0.4,1,0.7,1.7,0.6c0.9,0.1,1.7-0.5,1.9-1.4h1.2c-0.1,0.7-0.5,1.4-1,1.9c-0.6,0.4-1.3,0.6-2,0.6c-1,0.1-2-0.3-2.6-1.1
								s-0.9-1.7-0.9-2.7s0.3-1.9,1-2.7C104.1,200.4,105,200,105.8,200z M107.8,203.1c0-0.6-0.2-1.1-0.6-1.5s-0.9-0.6-1.5-0.6
								c-0.5,0-1,0.2-1.4,0.6c-0.4,0.4-0.6,0.9-0.7,1.5H107.8z"/>
							<path d="M111.6,197.4v10h-1.2v-10H111.6z"/>
							<path d="M115.9,200c0.8-0.1,1.5,0.1,2.2,0.6c0.5,0.4,0.8,1,0.8,1.7h-1.2c0-0.4-0.2-0.7-0.5-0.9s-0.7-0.3-1.1-0.4
								c-0.4,0-0.8,0.1-1.1,0.2c-0.4,0.2-0.5,0.7-0.3,1.1c0.1,0.1,0.2,0.2,0.3,0.3c0.3,0.2,0.7,0.3,1.1,0.4l1.1,0.2
								c0.6,0.1,1.1,0.4,1.6,0.7c0.4,0.3,0.6,0.8,0.5,1.3c0,0.7-0.3,1.3-0.8,1.7c-0.7,0.4-1.5,0.6-2.3,0.6s-1.6-0.2-2.2-0.6
								c-0.6-0.4-0.9-1.1-0.9-1.8h1.2c0,0.4,0.2,0.8,0.5,1c0.4,0.3,0.9,0.4,1.4,0.4c1.2,0,1.8-0.4,1.8-1.1c0-0.3-0.2-0.6-0.4-0.8
								c-0.6-0.3-1.2-0.5-1.8-0.6c-0.7-0.1-1.3-0.3-1.9-0.7c-0.4-0.3-0.6-0.8-0.6-1.3c0-0.6,0.3-1.1,0.7-1.5
								C114.5,200.1,115.2,199.9,115.9,200z"/>
							<path d="M125,200.1l2,6l0,0l2-6h1.2l-2.7,7.2h-1.3l-2.7-7.2H125z"/>
							<path d="M134.4,200c0.9,0,1.8,0.4,2.4,1.1c0.6,0.8,0.9,1.9,0.9,2.9v0.1h-5.4v0.1c0,0.6,0.2,1.2,0.6,1.7
								c0.4,0.4,1,0.7,1.6,0.6c0.9,0.1,1.7-0.5,1.9-1.4h1.2c-0.1,0.7-0.5,1.4-1.1,1.9c-0.6,0.4-1.3,0.6-2,0.6c-1,0.1-2-0.3-2.6-1.1
								s-0.9-1.7-0.9-2.7s0.3-1.9,1-2.7C132.6,200.4,133.5,200,134.4,200z M136.4,203.1c0-0.6-0.2-1.1-0.6-1.5
								c-0.4-0.4-0.9-0.6-1.5-0.6c-0.5,0-1,0.2-1.4,0.6c-0.4,0.4-0.6,0.9-0.7,1.5H136.4z"/>
							<path d="M142.6,200v1.2c-0.7-0.1-1.5,0.2-2,0.7c-0.5,0.6-0.7,1.4-0.6,2.2v3.2h-1.2v-7.2h1.2v1.5l0,0c0.4-1,1.4-1.7,2.5-1.7
								h0.1V200z"/>
							<path d="M145.9,200c0.8-0.1,1.5,0.1,2.2,0.6c0.5,0.4,0.8,1,0.8,1.7h-1.2c0-0.4-0.2-0.7-0.5-0.9c-0.4-0.2-0.8-0.4-1.2-0.4
								s-0.8,0.1-1.1,0.2c-0.4,0.2-0.5,0.7-0.3,1c0.1,0.1,0.2,0.2,0.3,0.3c0.3,0.2,0.7,0.3,1.1,0.4l1.1,0.2c0.6,0.1,1.1,0.4,1.6,0.7
								c0.4,0.3,0.6,0.8,0.5,1.3c0,0.7-0.3,1.3-0.8,1.7c-0.7,0.4-1.5,0.6-2.3,0.6s-1.6-0.2-2.2-0.6c-0.6-0.4-0.9-1.1-0.9-1.8h1.2
								c0,0.4,0.2,0.8,0.5,1c0.4,0.3,0.9,0.4,1.4,0.4c1.2,0,1.8-0.4,1.8-1.1c0-0.3-0.2-0.6-0.4-0.8c-0.6-0.3-1.2-0.5-1.8-0.6
								c-0.7-0.1-1.3-0.3-1.9-0.7c-0.4-0.3-0.6-0.8-0.6-1.3c0-0.6,0.3-1.1,0.7-1.5C144.6,200.1,145.3,199.9,145.9,200z"/>
							<path d="M155.7,197.4v10h-1.2v-10H155.7z"/>
							<path d="M160.5,200c0.9,0,1.8,0.4,2.4,1.1c0.6,0.8,0.9,1.9,0.9,2.9v0.1h-5.4v0.1c0,0.6,0.2,1.2,0.6,1.7
								c0.4,0.4,1,0.7,1.6,0.6c0.9,0.1,1.7-0.5,1.9-1.4h1.2c-0.1,0.7-0.5,1.4-1,1.9c-0.6,0.4-1.3,0.6-2,0.6c-1,0.1-2-0.3-2.6-1.1
								s-0.9-1.7-0.9-2.7s0.3-1.9,1-2.7C158.8,200.4,159.7,200,160.5,200z M162.5,203.1c0-0.6-0.2-1.1-0.6-1.5
								c-0.4-0.4-0.9-0.6-1.5-0.6c-0.5,0-1,0.2-1.4,0.6c-0.4,0.4-0.6,0.9-0.7,1.5H162.5z"/>
							<path d="M172.4,200c0.9-0.1,1.7,0.4,2,1.2c0.2-0.4,0.6-0.7,1-0.9s0.9-0.3,1.3-0.3c0.7-0.1,1.3,0.1,1.8,0.6
								c0.4,0.4,0.6,0.9,0.6,1.5v5.4h-1.2v-4.8c0-0.4-0.1-0.8-0.3-1.2c-0.3-0.3-0.7-0.4-1.1-0.4c-0.5,0-1,0.2-1.4,0.5
								s-0.5,0.8-0.5,1.3v4.6h-1.2v-4.8c0-0.4-0.1-0.8-0.3-1.2c-0.3-0.3-0.6-0.4-1-0.4c-0.7,0-1.3,0.4-1.6,1
								c-0.2,0.3-0.3,0.6-0.3,0.9v4.5H169v-7.2h1.1v1.1l0,0C170.6,200.5,171.5,200,172.4,200z"/>
							<path d="M184,200c1-0.1,1.9,0.3,2.6,1c1.3,1.6,1.3,3.9,0,5.5c-0.7,0.7-1.6,1.1-2.6,1.1c-1,0.1-1.9-0.3-2.6-1
								c-0.7-0.8-1-1.7-1-2.8c0-1,0.3-2,0.9-2.8C182.1,200.3,183,199.9,184,200z M181.8,203.8c0,0.7,0.2,1.4,0.6,2
								c0.8,0.9,2.1,1,3,0.3c0.1-0.1,0.2-0.2,0.3-0.3c0.8-1.2,0.8-2.8,0-4c-0.7-0.9-2-1-2.9-0.4c-0.1,0.1-0.2,0.2-0.4,0.4
								C181.9,202.4,181.7,203.1,181.8,203.8L181.8,203.8z"/>
							<path d="M190.1,197.4v3.7l0,0c0.5-0.8,1.4-1.3,2.3-1.1c0.9-0.1,1.8,0.3,2.4,1c0.6,0.8,1,1.8,0.9,2.8c0,1-0.3,2-0.9,2.7
								c-0.6,0.7-1.5,1-2.4,1c-0.5,0-0.9-0.1-1.3-0.3c-0.4-0.2-0.8-0.5-1-0.9l0,0v1H189v-10L190.1,197.4z M190.1,203.7
								c0,0.7,0.2,1.4,0.6,2c0.4,0.5,1,0.8,1.7,0.7c0.6,0,1.2-0.2,1.6-0.7c0.4-0.6,0.6-1.3,0.6-2.1c0-0.7-0.2-1.4-0.6-1.9
								c-0.4-0.5-1-0.8-1.6-0.8s-1.2,0.3-1.6,0.8C190.3,202.3,190.1,203,190.1,203.7L190.1,203.7z"/>
							<path d="M198.5,197.4v1.5h-1.2v-1.5H198.5z M198.5,200.1v7.2h-1.2v-7.2H198.5z"/>
							<path d="M201.6,197.4v10h-1.2v-10H201.6z"/>
							<path d="M206.4,200c0.9,0,1.8,0.4,2.4,1.1c0.6,0.8,0.9,1.9,0.9,2.9v0.1h-5.4v0.1c0,0.6,0.2,1.2,0.6,1.7
								c0.4,0.4,1,0.7,1.7,0.6c0.9,0.1,1.7-0.5,1.9-1.4h1.2c-0.1,0.7-0.5,1.4-1.1,1.9c-0.6,0.4-1.3,0.6-2.1,0.6
								c-1,0.1-2-0.4-2.6-1.1c-0.6-0.8-0.9-1.7-0.9-2.7s0.3-1.9,1-2.7C204.6,200.4,205.5,200,206.4,200z M208.4,203.1
								c0-0.6-0.2-1.1-0.6-1.5c-0.8-0.8-2.1-0.8-2.9,0c-0.4,0.4-0.6,0.9-0.7,1.5H208.4z"/>
							<path d="M218.3,200c1.7,0,2.5,0.9,2.5,2.6v4.8h-1.2v-4.9c0-0.7-0.5-1.4-1.3-1.4l0,0h-0.2c-0.6,0-1.2,0.2-1.6,0.6
								c-0.4,0.4-0.6,1-0.6,1.6v4.1h-1.2v-7.2h1.2v1.1l0,0C216.5,200.5,217.4,200,218.3,200z"/>
							<path d="M225.6,200c1.8,0,2.7,0.6,2.7,1.9v4.2c0,0.3,0.1,0.4,0.4,0.4c0.1,0,0.2,0,0.4-0.1v0.9c-0.3,0.1-0.6,0.2-0.9,0.2
								c-0.7,0-1-0.4-1-1.1c-0.6,0.7-1.6,1.2-2.6,1.1c-0.6,0-1.3-0.2-1.8-0.5c-0.4-0.4-0.7-0.9-0.6-1.5c0-0.6,0.2-1.1,0.6-1.5
								c0.9-0.5,1.9-0.8,2.9-0.9c0.4,0,0.7-0.1,1.1-0.3c0.2-0.1,0.3-0.4,0.3-0.6c0-0.8-0.5-1.2-1.6-1.2c-0.5,0-0.9,0.1-1.3,0.3
								c-0.3,0.2-0.5,0.6-0.5,1h-1.2C222.6,200.8,223.6,200,225.6,200z M223.5,205.5c0,0.3,0.1,0.6,0.4,0.8c0.3,0.2,0.6,0.3,1,0.3
								c0.6,0,1.1-0.1,1.6-0.5c0.4-0.2,0.6-0.7,0.6-1.1v-1.2c-0.3,0.2-0.5,0.3-0.8,0.3l-1.2,0.2c-0.4,0-0.8,0.2-1.2,0.4
								C223.6,204.8,223.5,205.1,223.5,205.5L223.5,205.5z"/>
							<path d="M231.8,198v2.2h1.4v1.1h-1.4v4.5c0,0.2,0,0.3,0.1,0.5c0.2,0.1,0.4,0.2,0.6,0.1h0.7v1h-1c-0.5,0-0.9-0.1-1.3-0.3
								c-0.3-0.3-0.4-0.8-0.4-1.2v-4.7h-1.2v-1.1h1.2V198H231.8z"/>
							<path d="M235.8,197.4v1.5h-1.2v-1.5H235.8z M235.8,200.1v7.2h-1.2v-7.2H235.8z"/>
							<path d="M240.8,200c1-0.1,1.9,0.3,2.6,1c1.3,1.6,1.3,3.9,0,5.5c-0.7,0.7-1.6,1.1-2.6,1.1c-1,0.1-1.9-0.3-2.6-1
								c-0.7-0.8-1-1.7-1-2.8c0-1,0.3-2,1-2.8C238.9,200.3,239.8,200,240.8,200z M238.5,203.8c0,0.7,0.2,1.4,0.6,2
								c0.8,0.9,2.1,1,3,0.3l0,0c0.1-0.1,0.2-0.2,0.2-0.2c0.4-0.6,0.7-1.3,0.6-2c0-0.7-0.2-1.4-0.6-2c-0.7-0.9-2-1-2.9-0.3
								c-0.1,0.1-0.2,0.2-0.3,0.3C238.7,202.4,238.5,203.1,238.5,203.8L238.5,203.8z"/>
							<path d="M249.2,200c1.7,0,2.5,0.9,2.5,2.6v4.8h-1.2v-4.9c0.1-0.7-0.5-1.4-1.2-1.5H249c-0.6,0-1.2,0.2-1.6,0.6
								c-0.4,0.4-0.6,1-0.6,1.6v4.1h-1.2v-7.2h1.1v1.1l0,0C247.3,200.4,248.2,199.9,249.2,200z"/>
							<path d="M256.5,200c1.8,0,2.7,0.6,2.7,1.9v4.2c0,0.3,0.1,0.4,0.4,0.4c0.1,0,0.3,0,0.4-0.1v0.9c-0.3,0.1-0.6,0.2-0.9,0.2
								c-0.7,0-1-0.4-1-1.1c-0.6,0.7-1.6,1.2-2.5,1.1c-0.6,0-1.3-0.1-1.8-0.5c-0.4-0.4-0.7-0.9-0.6-1.5c0-0.6,0.2-1.1,0.6-1.5
								c0.9-0.5,1.9-0.8,2.9-0.9c0.4,0,0.7-0.1,1-0.3c0.2-0.1,0.3-0.4,0.3-0.6c0-0.8-0.5-1.2-1.6-1.2c-0.5,0-0.9,0.1-1.3,0.3
								c-0.3,0.2-0.5,0.6-0.5,1h-1.2C253.5,200.8,254.5,200,256.5,200z M254.4,205.5c0,0.3,0.1,0.6,0.4,0.8c0.3,0.2,0.6,0.3,1,0.3
								c0.6,0,1.1-0.1,1.6-0.5c0.4-0.2,0.6-0.7,0.6-1.1v-1.2c-0.3,0.2-0.5,0.3-0.8,0.3l-1.2,0.2c-0.4,0-0.8,0.2-1.2,0.4
								C254.5,204.8,254.3,205.1,254.4,205.5L254.4,205.5z"/>
							<path d="M262.3,197.4v10h-1.2v-10H262.3z"/>
							<path d="M49.6,217.4c0.6,0,1.2,0.2,1.7,0.6c0.4,0.4,0.7,0.9,0.7,1.5c-0.1,1.1-0.8,2.1-1.9,2.6l1.8,2.2c0.2-0.5,0.3-1,0.3-1.6
								h1.1c0,0.4-0.1,0.8-0.2,1.2c-0.1,0.4-0.3,0.9-0.5,1.3l1.9,2.2h-1.6l-1.1-1.2c-0.3,0.4-0.7,0.8-1.2,1s-1.1,0.4-1.6,0.4
								c-0.9,0.1-1.7-0.2-2.3-0.8c-0.5-0.5-0.8-1.3-0.8-2c0-0.6,0.2-1.2,0.5-1.6c0.5-0.6,1.1-1,1.8-1.4l-0.5-0.6
								c-0.4-0.5-0.6-1.1-0.6-1.7c0-0.5,0.3-1,0.7-1.4C48.4,217.6,49,217.4,49.6,217.4z M47.4,224.8c0,0.5,0.2,0.9,0.5,1.2
								c0.4,0.3,0.9,0.5,1.4,0.5c0.9,0,1.7-0.4,2.1-1.2l-2.3-2.8c-0.5,0.2-1,0.6-1.4,1C47.5,223.9,47.3,224.3,47.4,224.8z
								 M48.5,219.5c0,0.2,0.1,0.5,0.2,0.7c0.2,0.4,0.5,0.7,0.8,1c0.4-0.2,0.7-0.5,1-0.9c0.2-0.2,0.3-0.5,0.3-0.9
								c0-0.3-0.1-0.6-0.3-0.8s-0.5-0.3-0.8-0.3s-0.6,0.1-0.8,0.3C48.6,218.9,48.5,219.2,48.5,219.5z"/>
							<path d="M61.7,217.3c0.3,0,0.5,0,0.8,0.1v1c-0.2-0.1-0.4-0.1-0.7-0.1c-0.6,0-0.9,0.3-0.9,0.8v1h1.4v1.1h-1.4v6.2h-1.2v-6.2
								h-1.2v-1.1h1.2V219c0-0.5,0.2-0.9,0.5-1.3C60.7,217.4,61.2,217.2,61.7,217.3z M64.7,217.4v1.5h-1.2v-1.5H64.7z M64.7,220.1
								v7.2h-1.2v-7.2H64.7z"/>
							<path d="M67.4,220.1l1.7,2.5l0,0l1.8-2.5h1.4l-2.5,3.3l2.8,3.9h-1.5l-2-3l-2,3h-1.5l2.7-3.8l-2.5-3.4H67.4z"/>
							<path d="M76.8,220c0.9,0,1.8,0.4,2.4,1.1c0.6,0.8,0.9,1.9,0.8,2.9v0.1h-5.4v0.1c0,0.6,0.2,1.2,0.6,1.7c0.4,0.4,1,0.7,1.7,0.6
								c0.9,0.1,1.7-0.5,1.9-1.4H80c-0.1,0.7-0.5,1.4-1.1,1.9c-0.6,0.4-1.3,0.6-2,0.6c-1,0.1-2-0.4-2.6-1.1
								c-0.6-0.8-0.9-1.7-0.9-2.7s0.3-1.9,1-2.7C75,220.4,75.9,220,76.8,220z M78.8,223.1c0-0.6-0.2-1.1-0.6-1.5
								c-0.8-0.8-2.1-0.8-2.9,0c-0.4,0.4-0.6,0.9-0.7,1.5H78.8z"/>
							<path d="M86.4,217.4v1.5h-1.2v-1.5H86.4z M86.4,220.1v7.2h-1.2v-7.2H86.4z"/>
							<path d="M91.8,220c1.7,0,2.5,0.9,2.5,2.6v4.8h-1.2v-4.9c0-0.4-0.1-0.7-0.4-1s-0.7-0.4-1.1-0.4c-0.6,0-1.2,0.2-1.6,0.6
								c-0.4,0.4-0.6,1-0.6,1.6v4.1h-1.2v-7.2h1.1v1.1l0,0C89.9,220.5,90.8,219.9,91.8,220z"/>
							<path d="M97.7,218v2.2h1.4v1.1h-1.4v4.5c0,0.2,0,0.3,0.1,0.5c0.2,0.1,0.4,0.2,0.6,0.1h0.7v1h-1c-0.5,0-0.9-0.1-1.3-0.3
								c-0.3-0.3-0.4-0.8-0.4-1.2v-4.7h-1.2v-1.1h1.2V218H97.7z"/>
							<path d="M103.5,220c0.9-0.1,1.8,0.4,2.4,1.1c0.6,0.8,0.9,1.9,0.9,2.9v0.1h-5.4v0.1c0,0.6,0.2,1.2,0.6,1.7
								c0.4,0.4,1,0.7,1.7,0.6c0.9,0.1,1.7-0.5,1.9-1.4h1.2c-0.1,0.7-0.5,1.4-1,1.9c-0.6,0.4-1.3,0.6-2,0.6c-1,0.1-2-0.3-2.6-1.1
								s-0.9-1.7-0.9-2.7s0.3-1.9,1-2.7C101.8,220.4,102.6,220,103.5,220z M105.5,223.1c0-0.6-0.2-1.1-0.6-1.5
								c-0.8-0.8-2.1-0.8-2.9,0c-0.4,0.4-0.6,0.9-0.7,1.5H105.5z"/>
							<path d="M111.8,220v1.2c-0.7-0.1-1.5,0.2-2,0.7c-0.5,0.6-0.7,1.4-0.6,2.2v3.2H108v-7.2h1.1v1.5l0,0c0.4-1,1.4-1.7,2.5-1.7
								h0.2L111.8,220z"/>
							<path d="M116.2,220c1.7,0,2.5,0.9,2.5,2.6v4.8h-1.2v-4.9c0.1-0.7-0.5-1.4-1.2-1.5H116c-0.6,0-1.2,0.2-1.6,0.6
								c-0.4,0.4-0.6,1-0.6,1.6v4.1h-1.2v-7.2h1.1v1.1l0,0C114.3,220.4,115.2,220,116.2,220z"/>
							<path d="M123.4,220c1.8,0,2.7,0.6,2.7,1.9v4.2c0,0.3,0.1,0.4,0.4,0.4c0.1,0,0.2,0,0.4-0.1v0.9c-0.3,0.1-0.6,0.2-0.8,0.2
								c-0.7,0-1-0.4-1-1.1c-0.6,0.7-1.6,1.2-2.6,1.1c-0.6,0-1.3-0.2-1.8-0.5c-0.4-0.4-0.7-0.9-0.6-1.5c0-0.6,0.2-1.1,0.6-1.5
								c0.9-0.5,1.9-0.8,2.9-0.9c0.4,0,0.7-0.1,1.1-0.3c0.2-0.1,0.3-0.4,0.3-0.6c0-0.8-0.5-1.2-1.6-1.2c-0.5,0-0.9,0.1-1.3,0.3
								c-0.3,0.2-0.5,0.6-0.5,1h-1.2C120.4,220.8,121.4,220,123.4,220z M121.3,225.5c0,0.3,0.1,0.6,0.4,0.8s0.6,0.3,1,0.3
								c0.6,0,1.1-0.1,1.6-0.5c0.4-0.3,0.6-0.7,0.6-1.1v-1.2c-0.3,0.2-0.5,0.3-0.8,0.3l-1.2,0.2c-0.4,0-0.8,0.2-1.2,0.4
								C121.4,224.8,121.3,225.1,121.3,225.5L121.3,225.5z"/>
							<path d="M129.6,218v2.2h1.4v1.1h-1.4v4.5c0,0.2,0,0.3,0.1,0.5c0.1,0.1,0.3,0.1,0.6,0.1h0.6v1h-1c-0.5,0-0.9-0.1-1.3-0.3
								c-0.3-0.3-0.4-0.8-0.4-1.2v-4.7H127v-1.1h1.2V218H129.6z"/>
							<path d="M133.6,217.4v1.5h-1.2v-1.5H133.6z M133.6,220.1v7.2h-1.2v-7.2H133.6z"/>
							<path d="M138.6,220c1-0.1,1.9,0.3,2.6,1c1.2,1.6,1.2,3.9,0,5.5c-1.4,1.4-3.7,1.4-5.1,0.1c-0.7-0.8-1-1.7-1-2.8
								c0-1,0.3-2,1-2.8C136.7,220.3,137.6,220,138.6,220z M136.3,223.8c0,0.7,0.2,1.4,0.6,2c0.8,0.9,2.1,1,3,0.3l0,0
								c0.1-0.1,0.2-0.2,0.2-0.2c0.4-0.6,0.7-1.3,0.6-2c0-0.7-0.2-1.4-0.6-2c-0.7-0.9-2-1-2.9-0.3c-0.1,0.1-0.2,0.2-0.3,0.3
								C136.5,222.4,136.3,223.1,136.3,223.8L136.3,223.8z"/>
							<path d="M147,220c1.7,0,2.5,0.9,2.5,2.6v4.8h-1.2v-4.9c0-0.8-0.6-1.4-1.3-1.4c-0.1,0-0.1,0-0.2,0c-0.6,0-1.2,0.2-1.6,0.6
								c-0.4,0.4-0.6,1-0.6,1.6v4.1h-1.2v-7.2h1.1v1.1l0,0C145.1,220.5,146,219.9,147,220z"/>
							<path d="M154.2,220c1.8,0,2.7,0.6,2.7,1.9v4.2c0,0.3,0.1,0.4,0.4,0.4c0.1,0,0.3,0,0.4-0.1v0.9c-0.3,0.1-0.6,0.2-0.9,0.2
								c-0.7,0-1-0.4-1-1.1c-0.6,0.7-1.6,1.2-2.5,1.1c-0.6,0-1.3-0.1-1.8-0.5c-0.4-0.4-0.7-0.9-0.6-1.5c0-0.6,0.2-1.1,0.6-1.5
								c0.9-0.5,1.9-0.8,2.9-0.9c0.4,0,0.7-0.1,1.1-0.3c0.2-0.1,0.3-0.4,0.3-0.6c0-0.8-0.5-1.2-1.6-1.2c-0.5,0-0.9,0.1-1.3,0.3
								c-0.3,0.2-0.5,0.6-0.5,1h-1.2C151.3,220.8,152.3,220,154.2,220z M152.1,225.5c0,0.3,0.1,0.6,0.4,0.8c0.3,0.2,0.6,0.3,1,0.3
								c0.6,0,1.1-0.1,1.6-0.5c0.4-0.2,0.6-0.7,0.6-1.1v-1.2c-0.2,0.2-0.5,0.3-0.8,0.3l-1.2,0.2c-0.4,0-0.8,0.2-1.2,0.4
								C152.3,224.8,152.1,225.1,152.1,225.5L152.1,225.5z"/>
							<path d="M160.1,217.4v10h-1.2v-10H160.1z"/>
							<path d="M168.7,217.1c-1.2,1.9-1.9,4.2-1.9,6.4c0,1.1,0.1,2.3,0.4,3.4c0.3,1.1,0.8,2.2,1.4,3.2h-0.9
								c-0.7-1.1-1.3-2.2-1.7-3.4c-0.3-1-0.5-2.1-0.5-3.2c0-1.1,0.2-2.3,0.6-3.3c0.4-1.1,0.9-2.2,1.6-3.1L168.7,217.1L168.7,217.1z"
								/>
							<path d="M174.8,220.1v0.9l-4.4,5.4h4.6v1h-6.1v-0.9l4.4-5.3h-4.1v-1L174.8,220.1z"/>
							<path d="M179.3,220c1-0.1,1.9,0.3,2.6,1c1.2,1.6,1.2,3.9,0,5.5c-1.4,1.4-3.7,1.4-5.1,0c-0.7-0.8-1-1.7-1-2.8
								c0-1,0.3-2,0.9-2.8C177.4,220.3,178.3,219.9,179.3,220z M177,223.8c0,0.7,0.2,1.4,0.6,2c0.8,0.9,2.1,1,3,0.3
								c0.1-0.1,0.2-0.2,0.3-0.3c0.8-1.2,0.8-2.8,0-4c-0.7-0.9-2-1-2.9-0.3c-0.1,0.1-0.2,0.2-0.3,0.3C177.2,222.3,177,223,177,223.8
								z"/>
							<path d="M187.7,220c1.7,0,2.5,0.9,2.5,2.6v4.8H189v-4.9c0.1-0.7-0.5-1.4-1.2-1.5h-0.2c-0.6,0-1.2,0.2-1.6,0.6
								c-0.4,0.4-0.6,1-0.6,1.6v4.1h-1.2v-7.2h1.1v1.1l0,0C185.8,220.4,186.7,219.9,187.7,220z"/>
							<path d="M195,220c0.9,0,1.8,0.4,2.4,1.1c0.6,0.8,0.9,1.9,0.9,2.9v0.1h-5.4v0.1c0,0.6,0.2,1.2,0.6,1.7c0.4,0.4,1,0.7,1.6,0.6
								c0.9,0.1,1.7-0.5,1.9-1.4h1.2c-0.1,0.7-0.5,1.4-1,1.9c-0.6,0.4-1.3,0.6-2,0.6c-1,0.1-2-0.3-2.6-1.1s-0.9-1.7-0.9-2.7
								s0.3-1.9,1-2.7C193.3,220.4,194.1,220,195,220z M197,223.1c0-0.5-0.2-1.1-0.6-1.5c-0.8-0.8-2.1-0.8-2.9,0
								c-0.4,0.4-0.6,0.9-0.6,1.5H197z"/>
							<path d="M203.6,217.4v9.9h-1.2v-7.1h-2.6v-0.9l0,0c0.7,0,1.4-0.1,2-0.4c0.5-0.3,0.8-0.8,0.9-1.4h0.9L203.6,217.4L203.6,217.4
								z"/>
							<path d="M207.1,217.1c0.7,1,1.3,2.1,1.7,3.3c0.4,1,0.5,2.1,0.5,3.2c0,1.1-0.2,2.3-0.6,3.4c-0.4,1.1-0.9,2.2-1.6,3.1h-0.9
								c1.3-1.9,1.9-4.1,1.9-6.4c0-2.3-0.6-4.6-1.9-6.6H207.1z"/>
							<path class="st2" d="M48.4,237.4v1.6h-2v-1.6H48.4z M48.4,240.1v7.2h-2v-7.2H48.4z"/>
							<path class="st2" d="M52,237.4v10h-2v-10H52z"/>
							<path class="st2" d="M55.7,237.4v10h-2v-10H55.7z"/>
							<path class="st2" d="M59.3,237.4v1.6h-2v-1.6H59.3z M59.3,240.1v7.2h-2v-7.2H59.3z"/>
							<path class="st2" d="M65,239.9c0.9-0.1,1.7,0.4,2.1,1.2c0.5-0.8,1.3-1.2,2.2-1.2c0.7-0.1,1.5,0.2,2,0.7
								c0.4,0.5,0.7,1.2,0.6,1.9v4.9H70v-4.2c0-0.5-0.1-0.9-0.3-1.3c-0.2-0.3-0.6-0.4-0.9-0.4c-0.9,0-1.3,0.6-1.3,1.8v4.1h-2v-4.3
								c0-0.4-0.1-0.9-0.3-1.3c-0.2-0.2-0.6-0.4-0.9-0.3c-0.4,0-0.8,0.2-1,0.5c-0.3,0.3-0.4,0.8-0.4,1.2v4.2h-2v-7.2h1.9v1l0,0
								C63.2,240.4,64.1,239.9,65,239.9z"/>
							<path class="st2" d="M75.6,237.4v1.6h-2v-1.6H75.6z M75.6,240.1v7.2h-2v-7.2H75.6z"/>
							<path class="st2" d="M79.7,238v2.2h1.5v1.3h-1.5v3.6c-0.1,0.4,0.1,0.7,0.5,0.8l0,0c0.1,0,0.2,0,0.4,0c0.2,0,0.4,0,0.6-0.1
								v1.6c-0.4,0-0.8,0.1-1.2,0.1c-0.6,0-1.2-0.1-1.7-0.4c-0.4-0.3-0.6-0.8-0.6-1.4v-4.2h-1.2v-1.3h1.2V238H79.7z"/>
							<path class="st2" d="M85.4,239.9c0.6,0,1.3,0.2,1.8,0.5s1,0.8,1.2,1.4c0.3,0.6,0.5,1.4,0.4,2.1v0.4h-5.2c0,0.5,0.1,1,0.4,1.4
								c0.3,0.3,0.8,0.5,1.3,0.5c0.4,0,0.7-0.1,1-0.3c0.3-0.1,0.5-0.4,0.6-0.7h1.8c-0.4,1.5-1.8,2.6-3.4,2.4c-0.6,0-1.3-0.2-1.8-0.4
								c-0.6-0.3-1.1-0.7-1.4-1.3s-0.5-1.3-0.5-2.1c0-0.7,0.2-1.4,0.5-2s0.8-1,1.4-1.4C84.2,240.1,84.8,239.9,85.4,239.9z
								 M86.9,242.9c0-0.4-0.2-0.8-0.5-1.2c-0.3-0.3-0.7-0.4-1.1-0.4s-0.8,0.1-1.2,0.4c-0.3,0.3-0.5,0.7-0.5,1.1L86.9,242.9
								L86.9,242.9z M88.1,237.1l-2.2,2h-1.4l1.3-2H88.1z"/>
							<path d="M94.8,240.1l2,6l0,0l2-6h1.2l-2.7,7.2h-1.2l-2.7-7.2H94.8z"/>
							<path d="M104.2,240c0.9,0,1.8,0.4,2.4,1.1c0.6,0.8,0.9,1.9,0.9,2.9v0.1H102v0.1c0,0.6,0.2,1.2,0.6,1.7c0.4,0.4,1,0.7,1.7,0.6
								c0.9,0.1,1.7-0.5,1.9-1.4h1.2c-0.1,0.7-0.5,1.4-1,1.9c-0.6,0.4-1.3,0.6-2,0.6c-1,0.1-2-0.3-2.6-1.1s-0.9-1.7-0.9-2.7
								s0.3-1.9,1-2.7C102.4,240.4,103.3,240,104.2,240z M106.2,243.1c0-0.5-0.2-1.1-0.6-1.5c-0.8-0.8-2.1-0.8-2.9,0
								c-0.4,0.4-0.6,0.9-0.7,1.5H106.2z"/>
							<path d="M112.4,240v1.2c-0.7-0.1-1.5,0.2-2,0.7c-0.5,0.6-0.7,1.4-0.6,2.2v3.2h-1.2v-7.2h1.1v1.5l0,0c0.4-1,1.4-1.7,2.5-1.7
								h0.2V240z"/>
							<path d="M115.7,240c0.8-0.1,1.5,0.1,2.2,0.6c0.5,0.4,0.8,1,0.8,1.7h-1.2c0-0.4-0.2-0.7-0.5-0.9s-0.8-0.3-1.2-0.3
								c-0.4,0-0.8,0.1-1.1,0.2c-0.4,0.2-0.5,0.7-0.3,1.1c0.1,0.1,0.2,0.2,0.3,0.3c0.3,0.2,0.7,0.3,1.1,0.4l1.1,0.2
								c0.6,0.1,1.1,0.4,1.6,0.7c0.4,0.3,0.6,0.8,0.5,1.3c0,0.7-0.3,1.3-0.8,1.7c-0.7,0.4-1.5,0.6-2.3,0.6s-1.6-0.2-2.2-0.6
								c-0.6-0.4-0.9-1.1-0.9-1.8h1.2c0,0.4,0.2,0.8,0.5,1c0.4,0.3,0.9,0.4,1.4,0.4c1.2,0,1.8-0.4,1.8-1.1c0-0.3-0.2-0.6-0.4-0.8
								c-0.6-0.3-1.2-0.5-1.8-0.6c-0.7-0.1-1.3-0.3-1.9-0.7c-0.4-0.3-0.6-0.8-0.6-1.4c0-0.6,0.3-1.1,0.7-1.5
								C114.3,240.1,115,239.9,115.7,240z"/>
							<path d="M125.5,237.4v10h-1.2v-10H125.5z"/>
							<path d="M130.3,240c0.9,0,1.8,0.4,2.4,1.1c0.6,0.8,0.9,1.9,0.9,2.9v0.1h-5.4v0.1c0,0.6,0.2,1.2,0.6,1.7
								c0.4,0.4,1,0.7,1.6,0.6c0.9,0.1,1.7-0.5,1.9-1.4h1.2c-0.1,0.7-0.5,1.4-1.1,1.9c-0.6,0.4-1.3,0.6-2,0.6c-1,0.1-2-0.3-2.6-1.1
								s-0.9-1.7-0.9-2.7s0.3-1.9,1-2.7C128.6,240.4,129.4,240,130.3,240z M132.3,243.1c0-0.5-0.2-1.1-0.6-1.5
								c-0.8-0.8-2.1-0.8-2.9,0c-0.4,0.4-0.6,0.9-0.6,1.5H132.3z"/>
							<path d="M141.2,237.3c0.3,0,0.5,0,0.8,0.1v1c-0.2-0.1-0.4-0.1-0.7-0.1c-0.6,0-0.9,0.3-0.9,0.8v1h1.4v1.1h-1.4v6.2h-1.2v-6.2
								H138v-1.1h1.2V239c0-0.5,0.2-0.9,0.5-1.3C140.1,237.4,140.7,237.2,141.2,237.3z M144.1,237.4v1.5h-1.2v-1.5H144.1z
								 M144.1,240.1v7.2h-1.2v-7.2H144.1z"/>
							<path d="M146.9,240.1l1.7,2.5l0,0l1.8-2.5h1.4l-2.5,3.3l2.8,3.9h-1.5l-2-3l-2,3h-1.4l2.7-3.8l-2.5-3.4H146.9z"/>
							<path d="M156.2,240c0.9,0,1.8,0.4,2.4,1.1c0.6,0.8,0.9,1.9,0.9,2.9v0.1h-5.4v0.1c0,0.6,0.2,1.2,0.6,1.7
								c0.4,0.4,1,0.7,1.6,0.6c0.9,0.1,1.7-0.5,1.9-1.4h1.2c-0.1,0.7-0.5,1.4-1,1.9c-0.6,0.4-1.3,0.6-2,0.6c-1,0.1-2-0.3-2.6-1.1
								s-0.9-1.7-0.9-2.7s0.3-1.9,1-2.7C154.5,240.4,155.4,240,156.2,240z M158.2,243.1c0-0.6-0.2-1.1-0.6-1.5
								c-0.4-0.4-0.9-0.6-1.5-0.6c-0.5,0-1,0.2-1.4,0.6c-0.4,0.4-0.6,0.9-0.7,1.5H158.2z"/>
							<path d="M168.1,240c1.7,0,2.5,0.9,2.5,2.6v4.8h-1.2v-4.9c0-0.8-0.6-1.4-1.4-1.5l0,0c-0.6,0-1.2,0.2-1.6,0.6
								c-0.4,0.4-0.6,1-0.6,1.6v4.1h-1.2v-7.2h1.1v1.1l0,0C166.3,240.4,167.2,240,168.1,240z"/>
							<path d="M175.4,240c1.8,0,2.7,0.6,2.7,1.9v4.2c0,0.3,0.1,0.4,0.4,0.4c0.1,0,0.3,0,0.4-0.1v0.9c-0.3,0.1-0.6,0.2-0.9,0.2
								c-0.7,0-1-0.4-1-1.1c-0.6,0.7-1.6,1.2-2.5,1.1c-0.6,0-1.3-0.1-1.8-0.5c-0.4-0.4-0.7-0.9-0.6-1.5c0-0.6,0.2-1.1,0.6-1.5
								c0.9-0.5,1.9-0.8,2.9-0.9c0.4,0,0.7-0.1,1.1-0.3c0.2-0.1,0.3-0.4,0.3-0.6c0-0.8-0.5-1.2-1.6-1.2c-0.5,0-0.9,0.1-1.3,0.3
								c-0.3,0.2-0.5,0.6-0.5,1h-1.2C172.4,240.8,173.4,240,175.4,240z M173.3,245.5c0,0.3,0.1,0.6,0.4,0.8c0.3,0.2,0.6,0.3,1,0.3
								c0.6,0,1.1-0.1,1.6-0.5c0.4-0.2,0.6-0.7,0.6-1.1v-1.2c-0.3,0.2-0.5,0.3-0.8,0.3l-1.2,0.2c-0.4,0-0.8,0.2-1.2,0.4
								C173.4,244.8,173.3,245.1,173.3,245.5L173.3,245.5z"/>
							<path d="M181.6,238v2.2h1.4v1.1h-1.4v4.5c0,0.2,0,0.3,0.1,0.5c0.1,0.1,0.3,0.1,0.6,0.1h0.7v1h-1c-0.5,0-0.9-0.1-1.3-0.3
								c-0.3-0.3-0.4-0.8-0.4-1.2v-4.7h-1.2v-1.1h1.2V238H181.6z"/>
							<path d="M185.6,237.4v1.5h-1.2v-1.5H185.6z M185.6,240.1v7.2h-1.2v-7.2H185.6z"/>
							<path d="M190.6,240c1-0.1,1.9,0.3,2.6,1c1.3,1.6,1.3,3.9,0,5.5c-1.4,1.4-3.7,1.4-5.1,0.1c-0.7-0.8-1-1.7-1-2.8
								c0-1,0.3-2,1-2.8C188.7,240.3,189.6,240,190.6,240z M188.3,243.8c0,0.7,0.2,1.4,0.6,2c0.8,0.9,2.1,1,3,0.3
								c0.1-0.1,0.2-0.2,0.3-0.3c0.8-1.2,0.8-2.8,0-4c-0.7-0.9-2-1-2.9-0.3c-0.1,0.1-0.2,0.2-0.3,0.3
								C188.5,242.4,188.3,243.1,188.3,243.8L188.3,243.8z"/>
							<path d="M199,240c1.7,0,2.5,0.9,2.5,2.6v4.8h-1.2v-4.9c0.1-0.7-0.5-1.4-1.2-1.5c0,0,0,0-0.1,0h-0.2c-0.6,0-1.2,0.2-1.6,0.6
								c-0.4,0.4-0.6,1-0.6,1.6v4.1h-1.2v-7.2h1.1v1.1l0,0C197.1,240.4,198,239.9,199,240z"/>
							<path d="M206.2,240c1.8,0,2.7,0.6,2.7,1.9v4.2c0,0.3,0.1,0.4,0.4,0.4c0.1,0,0.2,0,0.4-0.1v0.9c-0.3,0.1-0.6,0.2-0.9,0.2
								c-0.7,0-1-0.4-1-1.1c-0.6,0.7-1.6,1.2-2.6,1.1c-0.6,0-1.2-0.2-1.8-0.5c-0.4-0.4-0.7-0.9-0.6-1.5c0-0.6,0.2-1.1,0.6-1.5
								c0.9-0.5,1.9-0.8,2.9-0.9c0.4,0,0.7-0.1,1.1-0.3c0.2-0.1,0.3-0.4,0.3-0.6c0-0.8-0.5-1.2-1.6-1.2c-0.5,0-0.9,0.1-1.3,0.3
								c-0.3,0.2-0.5,0.6-0.5,1h-1.2C203.3,240.8,204.3,240,206.2,240z M204.1,245.5c0,0.3,0.1,0.6,0.4,0.8c0.3,0.2,0.6,0.3,1,0.3
								c0.6,0,1.1-0.1,1.6-0.5c0.4-0.3,0.6-0.7,0.6-1.1v-1.2c-0.3,0.2-0.5,0.3-0.8,0.3l-1.2,0.2c-0.4,0-0.8,0.2-1.2,0.4
								C204.3,244.8,204.1,245.1,204.1,245.5L204.1,245.5z"/>
							<path d="M212.1,237.4v10h-1.2v-10H212.1z"/>
							<path class="st4" d="M34.8,179.6l-1.3,1.6c1.2,3.1-0.4,6.6-3.5,7.7s-6.6-0.4-7.7-3.5s0.4-6.6,3.5-7.7c1.9-0.7,4-0.4,5.7,0.8
								l1.3-1.3c-3.3-2.7-8.2-2.1-10.8,1.2s-2.1,8.2,1.2,10.8c3.3,2.7,8.2,2.1,10.8-1.2C35.9,185.6,36.2,182.3,34.8,179.6
								L34.8,179.6z"/>
							<path class="st5" d="M25.6,180.4L25.6,180.4c-0.4-0.4-1-0.3-1.4,0.1l-0.4,0.4c-0.4,0.4-0.4,1-0.1,1.4l3.3,4.2
								c0.3,0.4,0.9,0.6,1.4,0.2c0,0,0.1,0,0.1-0.1l0,0c0.1,0,0.1-0.1,0.2-0.2l6.8-8.5c0.4-0.4,0.3-1.1-0.1-1.5l0,0
								c-0.4-0.3-1-0.3-1.4,0.1l-6.2,6.1L25.6,180.4z"/>
							<path class="st4" d="M34.8,201.6l-1.3,1.6c1.2,3.1-0.4,6.6-3.5,7.7s-6.6-0.4-7.7-3.5s0.4-6.6,3.5-7.7c1.9-0.7,4-0.4,5.7,0.8
								l1.3-1.3c-3.3-2.7-8.2-2.1-10.8,1.2s-2.1,8.2,1.2,10.8c3.3,2.7,8.2,2.1,10.8-1.2C35.9,207.6,36.2,204.3,34.8,201.6
								L34.8,201.6z"/>
							<path class="st5" d="M25.6,202.4L25.6,202.4c-0.4-0.4-1-0.3-1.4,0.1l-0.4,0.4c-0.4,0.4-0.4,1-0.1,1.4l3.3,4.2
								c0.3,0.4,0.9,0.6,1.4,0.2c0,0,0.1,0,0.1-0.1l0,0c0.1,0,0.1-0.1,0.2-0.2l6.8-8.5c0.4-0.4,0.3-1.1-0.1-1.5l0,0
								c-0.4-0.3-1-0.3-1.4,0.1l-6.2,6.1L25.6,202.4z"/>
							<path class="st4" d="M34.8,239.6l-1.3,1.6c1.2,3.1-0.4,6.6-3.5,7.7s-6.6-0.4-7.7-3.5s0.4-6.6,3.5-7.7c1.9-0.7,4-0.4,5.7,0.8
								l1.3-1.3c-3.3-2.7-8.2-2.1-10.8,1.2s-2.1,8.2,1.2,10.8c3.3,2.7,8.2,2.1,10.8-1.2C35.9,245.6,36.2,242.3,34.8,239.6
								L34.8,239.6z"/>
							<path class="st5" d="M25.6,240.4L25.6,240.4c-0.4-0.4-1-0.3-1.4,0.1l-0.4,0.4c-0.4,0.4-0.4,1-0.1,1.4l3.3,4.2
								c0.3,0.4,0.9,0.6,1.4,0.2c0,0,0.1,0,0.1-0.1l0,0c0.1,0,0.1-0.1,0.2-0.2l6.8-8.5c0.4-0.4,0.3-1.1-0.1-1.5l0,0
								c-0.4-0.3-1-0.3-1.4,0.1l-6.2,6.1L25.6,240.4z"/>
							<line class="st1" x1="40" y1="158.8" x2="240" y2="158.8"/>
							<line class="st6" x1="21.7" y1="266.1" x2="187.7" y2="266.1"/>
							<path class="st4" d="M36.1,288.5L36.1,288.5l-4.6-4.6l-2.6,2.6l4.6,4.6l0,0c0.7,0.7,1.9,0.7,2.6-0.1
								C36.7,290.3,36.7,289.2,36.1,288.5L36.1,288.5z M29.5,282l-1.4-1.4c0.3-1.8-0.8-3.4-2.6-3.8l0,0l0,0
								c-0.6-0.1-1.1-0.1-1.6,0.1l2.1,2c0.2,0.2,0.2,0.5,0,0.6l0,0l-1.3,1.4c-0.2,0.2-0.5,0.2-0.7,0l0,0l-2.1-2.1
								c-0.6,1.7,0.3,3.5,2,4.1l0,0l0,0c0.5,0.2,1.1,0.2,1.6,0.1l1.4,1.4L29.5,282z"/>
							<path id="Router_00000099636690935708657420000006175707687482275976_" class="st4" d="M30.2,301.7c0-0.3-0.2-0.6-0.5-0.6
								l0,0c-0.3,0-0.6,0.3-0.5,0.6l0,0l0,0l-0.2,4.2h1.5L30.2,301.7z M36.7,306.4h-14c-0.6,0-1,0.4-1,1v1.2c0,0.6,0.4,1,1,1h14
								c0.6,0,1-0.4,1-1v-1.2C37.7,306.8,37.2,306.4,36.7,306.4z M23.3,308.5c-0.3,0-0.5-0.2-0.5-0.5s0.2-0.5,0.5-0.5l0,0l0,0
								c0.3,0,0.5,0.2,0.5,0.5S23.6,308.5,23.3,308.5L23.3,308.5z M24.9,308.5c-0.3,0-0.5-0.2-0.5-0.5s0.2-0.5,0.5-0.5
								s0.5,0.2,0.5,0.5S25.2,308.5,24.9,308.5L24.9,308.5z M36.1,308.5c-0.3,0-0.5-0.3-0.5-0.5c0-0.3,0.3-0.5,0.5-0.5
								s0.4,0.2,0.5,0.5C36.6,308.3,36.4,308.5,36.1,308.5z"/>
							<path d="M48,279.7v9.4h-1.3v-9.4H48z"/>
							<path d="M53.2,282.1c1.6,0,2.3,0.8,2.3,2.4v4.5h-1.1v-4.6c0-0.7-0.5-1.3-1.2-1.3H53c-0.6,0-1.1,0.2-1.5,0.6s-0.5,1-0.5,1.5
								v3.9h-1.1v-6.8h1v1.1l0,0C51.3,282.5,52.2,282.1,53.2,282.1z"/>
							<path d="M59.5,282.1c0.7,0,1.4,0.1,2,0.5c0.5,0.4,0.7,1,0.7,1.6h-1.1c0-0.3-0.2-0.7-0.5-0.8c-0.3-0.2-0.7-0.3-1.1-0.3
								c-0.4,0-0.7,0.1-1.1,0.2c-0.2,0.1-0.4,0.4-0.4,0.6s0.1,0.5,0.3,0.6c0.3,0.2,0.6,0.3,1,0.4l1,0.2c0.5,0.1,1.1,0.3,1.5,0.7
								c0.3,0.3,0.5,0.7,0.5,1.2c0,0.6-0.3,1.2-0.8,1.6c-0.6,0.4-1.4,0.6-2.1,0.6c-0.7,0-1.5-0.2-2.1-0.6c-0.5-0.4-0.8-1.1-0.8-1.7
								h1.1c0,0.4,0.2,0.8,0.5,1c0.4,0.3,0.9,0.4,1.3,0.3c1.1,0,1.7-0.3,1.7-1c0-0.3-0.2-0.6-0.4-0.7c-0.5-0.3-1.1-0.5-1.7-0.5
								c-0.6-0.1-1.3-0.3-1.8-0.7c-0.4-0.3-0.6-0.8-0.5-1.2c0-0.6,0.2-1.1,0.7-1.4C58.1,282.3,58.8,282.1,59.5,282.1z"/>
							<path d="M65.3,280.2v2h1.4v1h-1.4v4.3c0,0.2,0,0.3,0.1,0.4s0.3,0.1,0.6,0.1h0.7v1h-0.9c-0.4,0-0.9-0.1-1.2-0.3
								c-0.3-0.3-0.4-0.7-0.3-1.1v-4.4h-1.2v-1h1.1v-2H65.3z"/>
							<path d="M70.7,282.1c1.7,0,2.5,0.6,2.5,1.8v3.9c0,0.3,0.1,0.4,0.3,0.4c0.1,0,0.2,0,0.3-0.1v0.9c-0.2,0.1-0.5,0.2-0.8,0.2
								c-0.5,0-1-0.3-1-0.8c0-0.1,0-0.1,0-0.2c-0.6,0.7-1.5,1.1-2.4,1c-0.6,0-1.2-0.1-1.7-0.5c-0.4-0.4-0.6-0.9-0.6-1.4
								s0.2-1.1,0.6-1.5c0.8-0.5,1.8-0.8,2.8-0.8c0.4,0,0.7-0.1,1-0.3c0.2-0.1,0.3-0.3,0.3-0.5c0-0.8-0.5-1.1-1.5-1.1
								c-0.4,0-0.9,0.1-1.2,0.3c-0.3,0.2-0.5,0.6-0.4,1h-1.1C67.9,282.9,68.9,282.1,70.7,282.1z M68.7,287.3c0,0.3,0.1,0.6,0.3,0.7
								c0.3,0.2,0.6,0.3,1,0.3c0.5,0,1.1-0.1,1.5-0.5c0.4-0.2,0.6-0.6,0.6-1.1v-1.2c-0.2,0.1-0.5,0.2-0.8,0.3l-1.1,0.2
								c-0.4,0-0.8,0.2-1.1,0.4C68.8,286.6,68.7,286.9,68.7,287.3L68.7,287.3z"/>
							<path d="M76.2,279.7v9.4h-1.1v-9.4H76.2z"/>
							<path d="M79.1,279.7v9.4H78v-9.4H79.1z"/>
							<path d="M83.6,282.1c1.7,0,2.5,0.6,2.5,1.8v3.9c0,0.3,0.1,0.4,0.3,0.4c0.1,0,0.2,0,0.3-0.1v0.9c-0.2,0.1-0.5,0.2-0.8,0.2
								c-0.5,0-1-0.3-1-0.8c0-0.1,0-0.1,0-0.2c-0.6,0.7-1.5,1.1-2.4,1c-0.6,0-1.2-0.1-1.7-0.5c-0.4-0.4-0.6-0.9-0.6-1.4
								s0.2-1.1,0.6-1.5c0.8-0.5,1.8-0.8,2.8-0.8c0.4,0,0.7-0.1,1-0.3c0.2-0.1,0.3-0.3,0.2-0.5c0-0.8-0.5-1.1-1.5-1.1
								c-0.4,0-0.9,0.1-1.2,0.3c-0.3,0.2-0.5,0.6-0.4,1h-1.1C80.8,282.9,81.8,282.1,83.6,282.1z M81.6,287.3c0,0.3,0.1,0.6,0.4,0.7
								c0.3,0.2,0.6,0.3,1,0.3c0.5,0,1.1-0.1,1.5-0.5c0.4-0.2,0.6-0.6,0.6-1.1v-1.2c-0.2,0.1-0.5,0.2-0.8,0.3l-1.2,0.2
								c-0.4,0-0.8,0.2-1.1,0.4C81.8,286.6,81.6,286.9,81.6,287.3L81.6,287.3z"/>
							<path d="M89.5,280.2v2h1.3v1h-1.3v4.3c0,0.2,0,0.3,0.1,0.4s0.3,0.1,0.6,0.1h0.6v1h-0.9c-0.4,0-0.9-0.1-1.2-0.3
								c-0.3-0.3-0.4-0.7-0.3-1.1v-4.4h-1.2v-1h1.2v-2H89.5z"/>
							<path d="M93.2,279.7v1.4h-1.1v-1.4H93.2z M93.2,282.3v6.8h-1.1v-6.8H93.2z"/>
							<path d="M97.9,282.1c0.9,0,1.8,0.3,2.4,1c1.2,1.5,1.2,3.6,0,5.1c-0.6,0.7-1.5,1-2.4,1s-1.8-0.3-2.4-1s-1-1.6-0.9-2.6
								c0-0.9,0.3-1.9,0.9-2.6C96.1,282.4,97,282.1,97.9,282.1z M95.8,285.7c0,0.7,0.2,1.3,0.6,1.9c0.4,0.5,0.9,0.7,1.5,0.7
								s1.1-0.2,1.5-0.7c0.8-1.1,0.8-2.6,0-3.7c-0.7-0.8-2-0.9-2.8-0.2c-0.1,0.1-0.1,0.1-0.2,0.2C96,284.4,95.8,285,95.8,285.7z"/>
							<path d="M105.8,282.1c1.6,0,2.3,0.8,2.3,2.4v4.5H107v-4.6c0-0.7-0.5-1.3-1.2-1.3h-0.2c-0.6,0-1.1,0.2-1.5,0.6s-0.5,1-0.5,1.5
								v3.9h-1.1v-6.8h1v1.1l0,0C103.9,282.5,104.9,282,105.8,282.1z"/>
							<path d="M116.3,282.1c1.7,0,2.5,0.6,2.5,1.8v3.9c0,0.3,0.1,0.4,0.4,0.4c0.1,0,0.2,0,0.3-0.1v0.9c-0.2,0.1-0.5,0.2-0.8,0.2
								c-0.5,0-1-0.3-1-0.8c0-0.1,0-0.1,0-0.2c-0.6,0.7-1.5,1.1-2.4,1c-0.6,0-1.2-0.1-1.7-0.5c-0.4-0.4-0.6-0.9-0.6-1.4
								s0.2-1.1,0.6-1.5c0.8-0.5,1.8-0.8,2.8-0.8c0.4,0,0.7-0.1,1-0.3c0.2-0.1,0.3-0.3,0.3-0.5c0-0.8-0.5-1.1-1.5-1.1
								c-0.4,0-0.9,0.1-1.2,0.3c-0.3,0.2-0.5,0.6-0.4,1h-1.1C113.5,282.9,114.4,282.1,116.3,282.1z M115.7,279.5l1.1,1.9H116
								l-1.7-1.9H115.7z M114.3,287.3c0,0.3,0.1,0.6,0.3,0.7c0.3,0.2,0.6,0.3,1,0.3c0.5,0,1.1-0.1,1.5-0.5c0.4-0.2,0.6-0.6,0.6-1.1
								v-1.2c-0.2,0.2-0.5,0.2-0.8,0.3l-1.1,0.2c-0.4,0-0.8,0.2-1.1,0.4C114.4,286.6,114.3,286.9,114.3,287.3L114.3,287.3z"/>
							<path d="M51.1,299.7c0.7,0,1.4,0.2,2,0.7c0.5,0.4,0.8,1.1,0.8,1.8c0.1,1.1-0.6,2.1-1.6,2.4l0,0c0.4,0,0.8,0.3,1.1,0.7
								c0.3,0.6,0.4,1.2,0.4,1.8c0,0.4,0.1,0.9,0.2,1.3c0.1,0.3,0.2,0.5,0.4,0.8H53c-0.1-0.1-0.1-0.2-0.2-0.3c0-0.1,0-0.3-0.1-0.4
								l-0.1-1c0-0.5-0.1-1.1-0.3-1.6s-0.7-0.7-1.2-0.7H48v4h-1.2v-9.4L51.1,299.7z M50.6,304c1.4,0,2.1-0.5,2.1-1.7
								c0-0.4-0.1-0.9-0.4-1.2c-0.3-0.3-0.8-0.5-1.2-0.4h-3.2v3.3L50.6,304L50.6,304z"/>
							<path d="M58.4,302.1c0.9,0,1.8,0.3,2.4,1c1.2,1.5,1.2,3.6,0,5.1c-0.6,0.7-1.5,1.1-2.4,1c-0.9,0-1.8-0.3-2.4-1
								c-0.6-0.7-1-1.6-0.9-2.6c0-0.9,0.3-1.9,0.9-2.6C56.6,302.4,57.5,302.1,58.4,302.1z M56.3,305.7c0,0.7,0.2,1.3,0.6,1.9
								c0.4,0.5,0.9,0.7,1.5,0.7s1.1-0.2,1.5-0.7s0.6-1.2,0.6-1.9c0-0.7-0.2-1.3-0.6-1.9c-0.4-0.5-0.9-0.7-1.5-0.7s-1.1,0.3-1.5,0.7
								C56.5,304.4,56.3,305,56.3,305.7z"/>
							<path d="M64.2,302.3v4.6c0,0.7,0.5,1.3,1.2,1.3h0.2c0.6,0,1.1-0.2,1.5-0.6s0.5-1,0.5-1.5v-3.9h1.1v6.8h-1.1v-1l0,0
								c-0.4,0.8-1.3,1.3-2.2,1.2c-1.2,0.2-2.2-0.6-2.4-1.8l0,0c0-0.2,0-0.4,0-0.6v-4.5H64.2L64.2,302.3z"/>
							<path d="M71.9,300.2v2h1.4v1h-1.4v4.3c0,0.2,0,0.3,0.1,0.5c0.1,0.1,0.3,0.1,0.6,0.1h0.7v1h-0.9c-0.4,0-0.9-0.1-1.2-0.3
								c-0.3-0.3-0.4-0.7-0.3-1.1v-4.4h-1.1v-1H71v-2L71.9,300.2z"/>
							<path d="M77.3,302.1c0.9-0.1,1.7,0.3,2.3,1c0.6,0.8,0.9,1.7,0.8,2.7v0.1h-5.1v0.1c0,0.6,0.2,1.2,0.6,1.6s1,0.6,1.6,0.6
								c0.8,0.1,1.6-0.5,1.8-1.3h1.1c-0.1,0.7-0.5,1.3-1,1.7c-0.6,0.4-1.2,0.6-1.9,0.6c-0.9,0.1-1.8-0.3-2.4-1s-0.9-1.6-0.8-2.6
								c0-0.9,0.3-1.8,0.9-2.5C75.7,302.5,76.5,302.1,77.3,302.1z M79.2,305c0-0.5-0.2-1-0.6-1.4c-0.8-0.7-1.9-0.7-2.7,0
								c-0.4,0.4-0.6,0.9-0.6,1.4H79.2z"/>
							<path d="M82.7,302.3v4.6c0,0.7,0.5,1.3,1.2,1.3l0,0h0.2c0.6,0,1.1-0.2,1.5-0.6s0.5-1,0.5-1.5v-3.9h1.1v6.8h-1.1v-1l0,0
								c-0.4,0.8-1.3,1.3-2.2,1.2c-1.2,0.1-2.2-0.7-2.4-1.8l0,0c0-0.2,0-0.4,0-0.6v-4.5H82.7z"/>
							<path d="M92.4,302.1v1.2c-0.7-0.1-1.4,0.2-1.9,0.7c-0.4,0.6-0.7,1.3-0.6,2.1v3h-1.1v-6.8h1.1v1.4l0,0c0.4-1,1.3-1.6,2.3-1.6
								L92.4,302.1z"/>
							<path class="st5" d="M26.8,303.2c0.3,0,0.5-0.2,0.5-0.5c0-0.1,0-0.2-0.1-0.2c-0.6-1-0.6-2.3,0-3.3c0.1-0.2,0.1-0.5-0.1-0.6
								l0,0c-0.2-0.1-0.5-0.1-0.6,0.1l0,0c-0.8,1.3-0.8,2.9,0,4.2C26.5,303.1,26.7,303.2,26.8,303.2z"/>
							<path class="st5" d="M24.9,303.9c0.1,0.2,0.4,0.3,0.6,0.2c0.2-0.1,0.3-0.4,0.2-0.6l0,0l0,0c-0.9-1.6-0.9-3.5,0-5.1
								c0.1-0.2,0-0.5-0.2-0.6s-0.4,0-0.5,0.1l0,0c-3.3,0-5.9-0.3-5.9,3C19,304.2,21.6,306.8,24.9,303.9z"/>
							<path class="st5" d="M23.9,305c0.2-0.1,0.3-0.4,0.2-0.6c-1.2-2.1-1.2-4.8,0-6.9c0.1-0.2,0-0.5-0.2-0.6s-0.5,0-0.6,0.2
								c-1.4,2.4-1.4,5.4,0,7.8C23.4,305.1,23.7,305.1,23.9,305z"/>
							<path class="st5" d="M32.3,303.2c0.2,0.1,0.5,0.1,0.6-0.1l0,0c0.8-1.3,0.8-2.9,0-4.2c-0.1-0.2-0.4-0.3-0.6-0.2l0,0l0,0
								c-0.2,0.1-0.3,0.4-0.2,0.6l0,0c0.6,1,0.6,2.3,0,3.3C32,302.8,32.1,303.1,32.3,303.2L32.3,303.2z"/>
							<path class="st5" d="M33.7,298.4c0.9,1.6,0.9,3.5,0,5.1c-0.1,0.2-0.1,0.5,0.2,0.6s0.5,0.1,0.6-0.2l0,0l0,0
								c1.1-1.9,1.1-4.1,0-6c-0.1-0.2-0.4-0.3-0.6-0.2S33.6,298.2,33.7,298.4L33.7,298.4L33.7,298.4z"/>
							<path class="st5" d="M36.2,300.9c0,1.2-0.3,2.4-0.9,3.5c-0.1,0.2-0.1,0.5,0.2,0.6c0.2,0.1,0.5,0,0.6-0.2
								c1.4-2.4,1.4-5.4,0-7.8c-0.1-0.2-0.4-0.3-0.6-0.2c-0.2,0.1-0.3,0.4-0.2,0.6l0,0C35.9,298.5,36.2,299.7,36.2,300.9z"/>
							<path class="st5" d="M35.4,276.7l-2.9,2.3l-0.7,1.3l-4.9,4.9l-0.7-0.6l-3.9,3.9l0,0c-0.7,0.7-0.7,1.9,0,2.6s1.9,0.7,2.6,0
								l0,0l3.9-3.9l-0.7-0.7l4.9-4.9l1.3-0.6l2.3-3L35.4,276.7z"/>
							<path class="st7" d="M23.3,289.5c-0.1,0.1-0.2,0.1-0.3,0c-0.1-0.1-0.1-0.2,0-0.3l0,0l2.9-2.9c0.1-0.1,0.2-0.1,0.3,0
								c0.1,0.1,0.1,0.2,0,0.3l0,0L23.3,289.5z"/>
							<path class="st7" d="M27.2,287.5l-2.9,3l0,0c-0.1,0.1-0.2,0.1-0.3,0c-0.1-0.1-0.1-0.2,0-0.3l0,0l0,0l3-2.9
								c0.1-0.1,0.2-0.1,0.3,0l0,0C27.4,287.3,27.4,287.4,27.2,287.5C27.3,287.5,27.3,287.5,27.2,287.5L27.2,287.5z"/>
							<path d="M51.7,177.9v7.2c0,0.7-0.2,1.4-0.8,1.9s-1.3,0.7-2.1,0.7c-0.7,0-1.4-0.2-2-0.7c-0.6-0.6-0.8-1.5-0.8-2.4v-0.3h1.3
								v0.3c0,0.5,0.1,1.1,0.4,1.5c0.3,0.3,0.7,0.5,1.2,0.4c1,0,1.5-0.6,1.5-1.7v-7.1L51.7,177.9z"/>
							<path d="M54.7,180.5v4.7c0,0.4,0.1,0.7,0.4,1c0.3,0.3,0.6,0.4,1,0.4c0.6,0,1.1-0.2,1.5-0.6c0.4-0.4,0.5-1,0.5-1.6v-4h1.1v6.9
								h-1v-1.1l0,0c-0.4,0.8-1.3,1.3-2.2,1.3c-1.2,0.1-2.3-0.7-2.4-1.9c0-0.2,0-0.4,0-0.6v-4.6h1.1
								C54.7,180.4,54.7,180.5,54.7,180.5z"/>
							<path d="M63.3,180.3c0.7-0.1,1.5,0.1,2.1,0.6c0.5,0.4,0.7,1,0.8,1.6H65l0,0c0-0.3-0.2-0.7-0.5-0.9s-0.7-0.3-1.1-0.3
								c-0.4,0-0.7,0.1-1.1,0.2c-0.3,0.1-0.4,0.4-0.4,0.7s0.1,0.5,0.3,0.6c0.3,0.2,0.7,0.3,1.1,0.4l1.1,0.2c0.6,0.1,1.1,0.3,1.5,0.7
								c0.4,0.3,0.6,0.8,0.5,1.2c0,0.6-0.3,1.2-0.8,1.6c-0.6,0.4-1.4,0.6-2.2,0.6c-0.7,0-1.5-0.2-2.1-0.6c-0.5-0.4-0.8-1.1-0.8-1.8
								h1.1c0,0.4,0.2,0.8,0.5,1c0.4,0.3,0.9,0.4,1.3,0.4c1.1,0,1.7-0.4,1.7-1c0-0.3-0.2-0.6-0.4-0.7c-0.6-0.3-1.1-0.5-1.8-0.6
								s-1.3-0.3-1.8-0.7c-0.4-0.3-0.6-0.8-0.5-1.3c0-0.6,0.2-1.1,0.7-1.4C62,180.5,62.7,180.3,63.3,180.3z"/>
							<path d="M70.5,180.3c0.4,0,0.9,0.1,1.3,0.3c0.4,0.1,0.8,0.4,1,0.8l0,0v-0.9H74v9.6h-1.2v-3.6l0,0c-0.2,0.4-0.5,0.7-0.8,0.8
								c-0.4,0.2-0.9,0.3-1.4,0.3c-0.9,0-1.7-0.3-2.3-1c-0.6-0.7-0.9-1.7-0.9-2.6c0-1,0.3-1.9,0.9-2.6
								C68.8,180.7,69.7,180.3,70.5,180.3z M68.5,184c0,0.7,0.2,1.3,0.6,1.9c0.4,0.5,1,0.7,1.6,0.7s1.2-0.2,1.6-0.7
								c0.4-0.6,0.6-1.2,0.6-1.9s-0.2-1.4-0.6-1.9s-1-0.7-1.6-0.7s-1.2,0.2-1.5,0.7C68.7,182.6,68.5,183.3,68.5,184L68.5,184z"/>
							<path d="M76.8,180.5v4.7c0,0.4,0.1,0.7,0.4,1s0.6,0.4,1,0.4c0.6,0,1.1-0.2,1.5-0.6c0.4-0.4,0.5-1,0.5-1.6v-4h1.1v6.9h-1v-1.1
								l0,0c-0.4,0.8-1.3,1.3-2.2,1.3c-1.2,0.1-2.3-0.7-2.4-1.9c0-0.2,0-0.4,0-0.6v-4.6h1.1V180.5z"/>
							<path d="M84.9,177.9v1.6c0,0.5-0.1,1-0.4,1.4c-0.3,0.3-0.7,0.5-1.1,0.5v-0.7c0.5,0,0.8-0.4,0.8-1.3h-0.8v-1.5H84.9z"/>
							<path d="M89.7,180.3c1.7,0,2.6,0.6,2.6,1.9v4c0,0.3,0.1,0.4,0.4,0.4c0.1,0,0.2,0,0.3-0.1v0.9c-0.3,0.1-0.5,0.2-0.8,0.2
								c-0.7,0-1-0.4-1-1.1c-0.6,0.7-1.5,1.1-2.4,1.1c-0.6,0-1.2-0.1-1.7-0.5c-0.4-0.4-0.6-0.9-0.6-1.4c0-0.6,0.2-1.1,0.6-1.5
								c0.8-0.5,1.8-0.8,2.8-0.8c0.4,0,0.7-0.1,1-0.3c0.2-0.1,0.3-0.3,0.3-0.6c0-0.8-0.5-1.1-1.6-1.1c-0.4,0-0.9,0.1-1.3,0.3
								c-0.3,0.2-0.5,0.6-0.5,1h-1.1C86.9,181.1,87.9,180.3,89.7,180.3z M89.1,177.6l1.2,1.9h-0.9l-1.8-1.9H89.1z M87.7,185.6
								c0,0.3,0.1,0.6,0.3,0.8c0.3,0.2,0.6,0.3,1,0.3c0.5,0,1.1-0.1,1.5-0.5c0.4-0.2,0.6-0.7,0.6-1.1v-1.2c-0.2,0.2-0.5,0.3-0.8,0.3
								l-1.2,0.2c-0.4,0-0.8,0.2-1.1,0.4C87.9,185,87.7,185.3,87.7,185.6L87.7,185.6z"/>
							<path class="st2" d="M131,177.9l3,8.1l3-8.1h1.8v9.6h-1.2v-8l0,0l-3,8h-1.1l-3-8l0,0v8h-1.2v-9.6H131z"/>
							<path class="st2" d="M141.9,177.9v3.6l0,0c0.5-0.8,1.3-1.2,2.2-1.1c0.9,0,1.7,0.3,2.3,1c1.2,1.6,1.2,3.7,0,5.3
								c-0.6,0.7-1.4,1-2.3,1c-0.4,0-0.9-0.1-1.3-0.3c-0.4-0.2-0.8-0.5-1-0.8l0,0v0.9h-1.1v-9.6L141.9,177.9z M141.9,184
								c0,0.7,0.2,1.4,0.6,1.9c0.4,0.5,1,0.7,1.6,0.7s1.2-0.2,1.5-0.7c0.4-0.6,0.6-1.3,0.5-2c0-0.7-0.2-1.3-0.6-1.9
								c-0.4-0.5-1-0.7-1.6-0.7s-1.2,0.2-1.5,0.7C142.1,182.6,141.8,183.3,141.9,184L141.9,184z"/>
							<path class="st2" d="M149.9,177.9v1.4h-1.1v-1.4H149.9z M149.9,180.5v6.9h-1.1v-6.9H149.9z"/>
							<path class="st2" d="M153.2,178.4v2.1h1.4v1h-1.4v4.4c0,0.2,0,0.3,0.1,0.4c0.2,0.1,0.4,0.2,0.6,0.1h0.6v1h-0.9
								c-0.4,0-0.9-0.1-1.2-0.3c-0.3-0.3-0.4-0.7-0.4-1.2v-4.5h-1.2v-1h1.2v-2.1h1.2L153.2,178.4L153.2,178.4z"/>
							<path class="st2" d="M159.7,177.6l-4,10h-1l4-10H159.7z"/>
							<path class="st2" d="M162.7,180.3c0.7-0.1,1.5,0.1,2.1,0.6c0.5,0.4,0.7,1,0.7,1.6h-1.1l0,0c0-0.3-0.2-0.7-0.5-0.9
								s-0.7-0.3-1.1-0.3c-0.4,0-0.7,0.1-1.1,0.2c-0.4,0.2-0.5,0.7-0.3,1c0.1,0.1,0.2,0.2,0.3,0.3c0.3,0.2,0.7,0.3,1.1,0.4l1.1,0.2
								c0.6,0.1,1.1,0.3,1.5,0.7c0.4,0.3,0.5,0.8,0.5,1.2c0,0.6-0.3,1.2-0.9,1.6c-0.6,0.4-1.4,0.6-2.2,0.6c-0.7,0-1.5-0.2-2.1-0.6
								c-0.5-0.4-0.8-1.1-0.8-1.8h1.1c0,0.4,0.2,0.8,0.5,1c0.4,0.3,0.9,0.4,1.4,0.4c1.1,0,1.7-0.4,1.7-1c0-0.3-0.2-0.6-0.4-0.7
								c-0.6-0.3-1.1-0.5-1.8-0.6s-1.3-0.3-1.8-0.7c-0.4-0.3-0.6-0.8-0.6-1.3c0-0.6,0.2-1.1,0.7-1.4
								C161.3,180.5,162,180.3,162.7,180.3z"/>
							<path class="st2" d="M206.1,177.9l3,8.1l3-8.1h1.8v9.6h-1.2v-8l0,0l-3,8h-1.1l-3-8l0,0v8h-1.2v-9.6H206.1z"/>
							<path class="st2" d="M217,177.9v3.6l0,0c0.4-0.8,1.3-1.2,2.2-1.1c0.9,0,1.7,0.3,2.3,1c1.2,1.6,1.2,3.7,0,5.3
								c-0.6,0.7-1.4,1-2.3,1c-0.4,0-0.9-0.1-1.3-0.3c-0.4-0.2-0.8-0.4-1-0.8l0,0v0.9h-1.1v-9.6L217,177.9z M217,184
								c0,0.7,0.2,1.4,0.6,1.9c0.4,0.5,1,0.7,1.6,0.7s1.2-0.2,1.5-0.7c0.4-0.6,0.6-1.3,0.5-2c0-0.7-0.2-1.3-0.6-1.9
								c-0.4-0.5-1-0.7-1.6-0.7s-1.2,0.2-1.5,0.7C217.2,182.6,217,183.3,217,184L217,184z"/>
							<path class="st2" d="M225,177.9v1.4h-1.1v-1.4H225z M225,180.5v6.9h-1.1v-6.9H225z"/>
							<path class="st2" d="M228.3,178.4v2.1h1.4v1h-1.4v4.4c0,0.2,0,0.3,0.1,0.4c0.2,0.1,0.4,0.2,0.6,0.1h0.7v1h-0.9
								c-0.4,0-0.9-0.1-1.2-0.3c-0.3-0.3-0.4-0.7-0.4-1.2v-4.5H226v-1h1.2v-2.1h1.1V178.4z"/>
							<path class="st2" d="M234.8,177.6l-4,10h-1l4-10H234.8z"/>
							<path class="st2" d="M237.7,180.3c0.7-0.1,1.5,0.1,2.1,0.6c0.5,0.4,0.7,1,0.7,1.6h-1.1l0,0c0-0.3-0.2-0.7-0.5-0.9
								s-0.7-0.3-1.1-0.3c-0.4,0-0.7,0.1-1.1,0.2c-0.2,0.1-0.4,0.4-0.4,0.7s0.1,0.5,0.4,0.6c0.3,0.2,0.7,0.3,1.1,0.4l1.1,0.2
								c0.6,0.1,1.1,0.3,1.5,0.7c0.4,0.3,0.5,0.8,0.5,1.2c0,0.6-0.3,1.2-0.8,1.6c-0.6,0.4-1.4,0.6-2.2,0.6c-0.7,0-1.5-0.2-2.1-0.6
								c-0.5-0.4-0.8-1.1-0.8-1.8h1.1c0,0.4,0.2,0.8,0.5,1c0.4,0.3,0.9,0.4,1.4,0.4c1.1,0,1.7-0.4,1.7-1c0-0.3-0.2-0.6-0.4-0.7
								c-0.6-0.3-1.1-0.5-1.8-0.6s-1.3-0.3-1.8-0.7c-0.4-0.3-0.6-0.8-0.6-1.3c0-0.6,0.2-1.1,0.7-1.4
								C236.4,180.5,237.1,180.3,237.7,180.3z"/>
							<path class="st2" d="M99.3,189.5l2.4-2.5c0.2-0.2,0.2-0.6,0-0.8s-0.6-0.2-0.8,0l0,0l-1.5,1.5v-6.8l0,0c0-0.3-0.3-0.5-0.6-0.5
								c-0.3,0-0.4,0.2-0.5,0.5v6.8l-1.4-1.5c-0.2-0.2-0.6-0.2-0.8,0l0,0c-0.1,0.1-0.2,0.2-0.2,0.4c0,0.1,0.1,0.3,0.2,0.4l2.4,2.5
								c0.1,0.1,0.2,0.2,0.4,0.2C99.1,189.7,99.2,189.6,99.3,189.5z"/>
							<path class="st2" d="M171.5,175.4l-2.4,2.5c-0.2,0.2-0.2,0.6,0,0.8l0,0c0.2,0.2,0.5,0.2,0.8,0l0,0l1.5-1.5v6.8l0,0
								c0,0.3,0.2,0.6,0.6,0.6c0.3,0,0.6-0.2,0.6-0.6v-6.8l1.4,1.5c0.2,0.2,0.5,0.3,0.8,0.1c0.1-0.1,0.2-0.3,0.2-0.5
								c0-0.1-0.1-0.3-0.1-0.4l-2.4-2.5c-0.1-0.1-0.2-0.2-0.4-0.2C171.8,175.2,171.7,175.3,171.5,175.4z"/>
						</g>
					</g>
				</g>
				<path d="M97.9,300.9l1.7,7.1l0,0l1.9-7.1h1.2l1.9,7.1l0,0l1.7-7.1h1.1l-2.3,8.6h-1.2l-2-7.2l0,0l-2,7.2h-1.2l-2.2-8.6H97.9z"/>
				<path d="M109.6,300.9v1.2h-1v-1.2H109.6z M109.6,303.3v6.2h-1v-6.2H109.6z"/>
				<path d="M114.5,305.7v1H111v-1H114.5z"/>
				<path d="M121.6,300.9v1h-4.5v2.7h3.9v1h-3.9v3.9H116v-8.6H121.6z"/>
				<path d="M123.8,300.9v1.2h-1v-1.2H123.8z M123.8,303.3v6.2h-1v-6.2H123.8z"/>
				<path d="M141.3,303.2c1.5,0,2.3,0.6,2.3,1.7v3.6c0,0.2,0.1,0.3,0.3,0.3c0.1,0,0.2,0,0.3-0.1v0.8c-0.2,0.1-0.4,0.2-0.7,0.2
					c-0.6,0-0.9-0.3-0.9-1c-0.5,0.6-1.3,1-2.2,1c-0.6,0-1.1-0.1-1.5-0.4s-0.5-0.7-0.5-1.3c0-0.6,0.2-1,0.5-1.3
					c0.4-0.3,1.2-0.6,2.5-0.7c0.4-0.1,0.8-0.1,0.9-0.3c0.2-0.1,0.2-0.3,0.2-0.5c0-0.7-0.5-1-1.4-1c-0.5,0-0.9,0.1-1.1,0.3
					c-0.3,0.2-0.4,0.5-0.4,0.9h-1C138.8,303.8,139.6,303.2,141.3,303.2z M140.8,300.7l1,1.7H141l-1.6-1.7H140.8z M139.5,307.8
					c0,0.3,0.1,0.5,0.3,0.7s0.5,0.2,0.9,0.2c0.6,0,1-0.1,1.4-0.4s0.5-0.6,0.5-1v-1.1c-0.2,0.1-0.4,0.2-0.7,0.3l-1,0.2
					c-0.5,0.1-0.8,0.2-1,0.4C139.6,307.2,139.5,307.5,139.5,307.8z"/>
				<g>
					<path d="M131.4,303.2c0-0.4-0.2-0.7-0.4-0.9c-0.2-0.2-0.6-0.3-1-0.3s-0.8,0.1-1,0.3c-0.3,0.2-0.5,0.5-0.6,0.8s-0.2,0.7-0.3,1.1
						c-0.1,0.4-0.1,0.7-0.1,1.1l0,0c0.2-0.4,0.5-0.7,0.9-0.9c0.4-0.2,0.8-0.3,1.2-0.3s0.8,0.1,1.1,0.2s0.6,0.3,0.8,0.6
						s0.4,0.5,0.5,0.9s0.2,0.7,0.2,1.1c0,0.3,0,0.6-0.1,1s-0.3,0.6-0.5,0.9s-0.5,0.5-0.9,0.7s-0.8,0.3-1.4,0.3
						c-0.6,0-1.1-0.1-1.5-0.4c-0.4-0.3-0.7-0.6-0.9-1c-0.2-0.4-0.3-0.8-0.4-1.3s-0.1-0.9-0.1-1.4c0-0.6,0-1.1,0.2-1.7
						c0.1-0.5,0.3-1,0.5-1.5c0.2-0.4,0.6-0.8,1-1c0.4-0.3,0.9-0.4,1.5-0.4c0.7,0,1.3,0.2,1.7,0.6s0.7,0.9,0.7,1.6h-1.1V303.2z
						 M129.8,305c-0.3,0-0.5,0.1-0.8,0.2s-0.4,0.2-0.6,0.4c-0.2,0.2-0.3,0.4-0.3,0.6c-0.1,0.2-0.1,0.5-0.1,0.8s0,0.5,0.1,0.7
						c0.1,0.2,0.2,0.4,0.3,0.6s0.3,0.3,0.6,0.4c0.2,0.1,0.5,0.2,0.8,0.2s0.5,0,0.7-0.2c0.2-0.1,0.4-0.2,0.5-0.4
						c0.1-0.2,0.3-0.4,0.3-0.6s0.1-0.5,0.1-0.7c0-0.3,0-0.5-0.1-0.8c-0.1-0.2-0.2-0.4-0.3-0.6s-0.3-0.3-0.5-0.4
						C130.4,305,130.1,305,129.8,305z"/>
				</g>
				<g>
					<path d="M114.1,9.2v2h-5l-0.5,2.8l0,0c0.3-0.3,0.6-0.5,1-0.7s0.8-0.2,1.4-0.2c1.1,0,2,0.4,2.7,1.2c0.7,0.8,1,1.8,1,3
						c0,1.2-0.4,2.2-1.3,3.1c-0.9,0.9-1.9,1.3-3.2,1.3c-1.3,0-2.4-0.3-3.2-1s-1.3-1.6-1.3-2.8h2.5c0.1,0.6,0.3,1,0.6,1.3
						c0.4,0.3,0.8,0.5,1.4,0.5c0.6,0,1.1-0.2,1.5-0.7c0.4-0.5,0.6-1,0.6-1.7c0-0.7-0.2-1.2-0.6-1.6c-0.4-0.4-0.9-0.6-1.5-0.6
						c-0.4,0-0.8,0.1-1.1,0.2c-0.3,0.2-0.5,0.4-0.8,0.7h-2.2l1.2-6.7H114.1z"/>
					<path d="M119.9,9c1.5,0,2.6,0.5,3.3,1.6c0.8,1.1,1.2,2.6,1.2,4.7c0,2.1-0.4,3.7-1.1,4.8s-1.9,1.6-3.3,1.6
						c-1.4,0-2.5-0.5-3.3-1.6s-1.1-2.7-1.1-4.8c0-2,0.4-3.6,1.1-4.7C117.4,9.5,118.5,9,119.9,9z M117.9,15.2c0,1.3,0.1,2.2,0.3,2.7
						s0.4,1,0.7,1.2s0.6,0.4,1,0.4c0.6,0,1.1-0.3,1.5-1c0.3-0.6,0.5-1.8,0.5-3.4c0-1.6-0.2-2.7-0.5-3.3c-0.3-0.6-0.8-1-1.5-1
						c-0.6,0-1.1,0.3-1.5,0.9S117.9,13.6,117.9,15.2z"/>
					<path d="M134.6,9l2.9,8.5h0l2.7-8.5l0,0h3.8v12.4h-2.6v-8.8h0l-3,8.8h-2.1l-3-8.7h0v8.7h-2.6V9H134.6z"/>
					<path d="M150.4,12.1c1.3,0,2.4,0.5,3.2,1.4s1.2,2.1,1.2,3.5l0,0.5h-6.5c0,0.8,0.2,1.3,0.6,1.7s0.9,0.6,1.6,0.6
						c0.4,0,0.9-0.1,1.2-0.3s0.6-0.5,0.7-0.8h2.2c-0.3,1-0.8,1.8-1.5,2.3c-0.7,0.5-1.6,0.8-2.7,0.8c-1.4,0-2.5-0.4-3.3-1.3
						c-0.8-0.9-1.3-2-1.3-3.4c0-1.3,0.4-2.5,1.3-3.4C148,12.6,149.1,12.1,150.4,12.1z M148.3,15.9h4c-0.1-0.7-0.3-1.1-0.6-1.4
						c-0.3-0.3-0.8-0.5-1.3-0.5c-0.6,0-1.1,0.2-1.4,0.5C148.6,14.8,148.4,15.3,148.3,15.9z M153.8,8.7l-2.7,2.5h-1.7l1.7-2.5H153.8z
						"/>
					<path d="M159.8,12.1c0.7,0,1.2,0.1,1.6,0.4s0.8,0.6,1.1,1.1h0v-1.2h2.3v8.5c0,1.2-0.4,2.2-1.1,2.9c-0.8,0.7-1.9,1-3.5,1
						c-1.1,0-2-0.3-2.7-0.8s-1.2-1.2-1.2-2.1h2.4c0.1,0.4,0.3,0.8,0.6,0.9c0.3,0.2,0.7,0.3,1.2,0.3c0.6,0,1.1-0.2,1.5-0.6
						c0.3-0.4,0.5-0.9,0.5-1.6v-1.2h0c-0.2,0.4-0.6,0.8-1.1,1c-0.5,0.2-1,0.4-1.6,0.4c-1.2,0-2.2-0.4-2.8-1.2c-0.7-0.8-1-1.9-1-3.3
						c0-1.3,0.4-2.3,1.1-3.2C157.7,12.6,158.7,12.1,159.8,12.1z M158.5,16.6c0,0.8,0.2,1.5,0.5,2c0.3,0.5,0.8,0.7,1.5,0.7
						c0.7,0,1.2-0.2,1.5-0.7c0.4-0.5,0.6-1.1,0.6-1.8c0-0.9-0.2-1.6-0.5-2c-0.4-0.5-0.9-0.7-1.6-0.7c-0.6,0-1.1,0.2-1.5,0.7
						C158.6,15.2,158.5,15.8,158.5,16.6z"/>
					<path d="M171,12.1c1.3,0,2.3,0.2,3,0.7c0.6,0.4,1,1,1,1.8v4.8c0,0.4,0,0.7,0.1,1.1c0,0.4,0.1,0.6,0.2,0.8h-2.5
						c0-0.1-0.1-0.3-0.1-0.4c0-0.1-0.1-0.3-0.1-0.4c-0.3,0.4-0.8,0.6-1.3,0.8s-1.1,0.3-1.7,0.3c-0.9,0-1.7-0.2-2.2-0.7
						s-0.8-1.1-0.8-2c0-0.8,0.3-1.5,0.8-1.9s1.5-0.7,2.8-0.9c1-0.1,1.6-0.2,1.9-0.4c0.3-0.1,0.5-0.4,0.5-0.8c0-0.4-0.1-0.7-0.4-0.9
						s-0.6-0.3-1.2-0.3c-0.5,0-0.9,0.1-1.2,0.3c-0.3,0.2-0.4,0.6-0.5,1h-2.5c0.1-1,0.5-1.7,1.2-2.2S169.7,12.1,171,12.1z M169,18.8
						c0,0.4,0.1,0.6,0.4,0.8s0.6,0.3,1.2,0.3c0.7,0,1.2-0.2,1.5-0.5c0.3-0.3,0.5-0.8,0.5-1.5v-1c-0.1,0.1-0.3,0.2-0.6,0.3
						c-0.2,0.1-0.7,0.1-1.3,0.2c-0.6,0.1-1,0.2-1.2,0.4C169.1,18.1,169,18.4,169,18.8z"/>
				</g>
			</g>
			<rect x="18.8" y="91.1" width="250.8" height="32.7"/>
			<g>
				<rect x="17.4" y="88.1" class="st2" width="250.8" height="32.7"/>
				<g>
					<path class="st0" d="M23,102.3v-1.4c0.7,0,1.1-0.1,1.4-0.1c0.4-0.1,0.8-0.3,1-0.6c0.2-0.2,0.3-0.4,0.4-0.8
						c0.1-0.2,0.1-0.3,0.1-0.4h1.7v10.6h-2.1v-7.3H23z"/>
					<path class="st0" d="M37.3,100.4c0.5,1,0.8,2.3,0.8,4.1s-0.3,3.1-0.8,4.1c-0.5,0.9-1.5,1.4-2.8,1.4s-2.3-0.5-2.8-1.4
						c-0.5-0.9-0.8-2.3-0.8-4.1s0.3-3.1,0.8-4.1c0.5-1,1.5-1.4,2.8-1.4S36.8,99.4,37.3,100.4z M33.3,107.3c0.2,0.6,0.6,1,1.2,1
						s1-0.3,1.2-1c0.2-0.6,0.3-1.6,0.3-2.8c0-1.3-0.1-2.2-0.3-2.8c-0.2-0.6-0.6-0.9-1.2-0.9s-1,0.3-1.2,0.9s-0.3,1.6-0.3,2.8
						C33,105.7,33.1,106.6,33.3,107.3z"/>
					<path class="st0" d="M45.7,100.4c0.5,1,0.8,2.3,0.8,4.1s-0.3,3.1-0.8,4.1c-0.5,0.9-1.5,1.4-2.8,1.4s-2.3-0.5-2.8-1.4
						c-0.5-0.9-0.8-2.3-0.8-4.1s0.3-3.1,0.8-4.1c0.5-1,1.5-1.4,2.8-1.4S45.1,99.4,45.7,100.4z M41.6,107.3c0.2,0.6,0.6,1,1.2,1
						s1-0.3,1.2-1c0.2-0.6,0.3-1.6,0.3-2.8c0-1.3-0.1-2.2-0.3-2.8c-0.2-0.6-0.6-0.9-1.2-0.9s-1,0.3-1.2,0.9s-0.3,1.6-0.3,2.8
						C41.3,105.7,41.4,106.6,41.6,107.3z"/>
					<path class="st0" d="M59.5,98.9h3.2v10.8h-2.1v-7.3c0-0.2,0-0.5,0-0.9s0-0.7,0-0.9l-2,9.1h-2.2l-2-9.1c0,0.2,0,0.5,0,0.9
						s0,0.7,0,0.9v7.3h-2.1V98.9h3.3l2,8.5L59.5,98.9z"/>
					<path class="st0" d="M69.9,101.8c0.6,0.2,1,0.6,1.4,1.2c0.3,0.5,0.5,1,0.6,1.7c0.1,0.4,0.1,0.9,0.1,1.6h-5.8
						c0,0.8,0.3,1.4,0.8,1.7c0.3,0.2,0.7,0.3,1.2,0.3c0.5,0,0.9-0.1,1.2-0.4c0.2-0.1,0.3-0.3,0.4-0.5h2.1c-0.1,0.5-0.3,1-0.8,1.4
						c-0.7,0.8-1.7,1.2-3,1.2c-1.1,0-2-0.3-2.8-1c-0.8-0.7-1.2-1.7-1.2-3.2c0-1.4,0.4-2.4,1.1-3.2c0.7-0.7,1.7-1.1,2.9-1.1
						C68.7,101.5,69.3,101.6,69.9,101.8z M66.8,103.6c-0.3,0.3-0.5,0.7-0.6,1.2h3.6c0-0.6-0.2-1-0.6-1.3c-0.3-0.3-0.7-0.4-1.2-0.4
						C67.5,103.2,67,103.3,66.8,103.6z M70.5,98.4l-2.2,2.2h-1.5l1.4-2.2H70.5z"/>
					<path class="st0" d="M77,101.7c0.5,0.2,0.9,0.6,1.2,1.2v-1.1h2v7.6c0,1-0.2,1.8-0.5,2.3c-0.6,0.9-1.7,1.3-3.4,1.3
						c-1,0-1.9-0.2-2.5-0.6s-1-1-1.1-1.8H75c0.1,0.2,0.2,0.4,0.3,0.5c0.2,0.2,0.6,0.3,1.1,0.3c0.8,0,1.3-0.3,1.5-0.8
						c0.2-0.3,0.2-0.9,0.2-1.6v-0.5c-0.2,0.3-0.4,0.6-0.6,0.8c-0.4,0.3-1,0.5-1.6,0.5c-1,0-1.8-0.4-2.5-1.1
						c-0.6-0.7-0.9-1.7-0.9-2.9c0-1.2,0.3-2.2,0.9-3c0.6-0.8,1.4-1.2,2.5-1.2C76.3,101.5,76.7,101.6,77,101.7z M77.7,107.4
						c0.3-0.4,0.5-1,0.5-1.8c0-0.8-0.2-1.3-0.5-1.7s-0.7-0.6-1.3-0.6c-0.7,0-1.2,0.3-1.5,1c-0.1,0.4-0.2,0.8-0.2,1.4
						c0,0.5,0.1,0.9,0.2,1.2c0.3,0.7,0.8,1,1.5,1C76.9,108,77.3,107.8,77.7,107.4z"/>
					<path class="st0" d="M85.3,104.8c0.4,0,0.7-0.1,0.8-0.2c0.3-0.1,0.5-0.3,0.5-0.6c0-0.3-0.1-0.6-0.3-0.7c-0.2-0.1-0.6-0.2-1-0.2
						c-0.5,0-0.9,0.1-1.1,0.4c-0.1,0.2-0.2,0.4-0.3,0.7h-2c0-0.7,0.2-1.3,0.6-1.7c0.6-0.7,1.5-1.1,2.9-1.1c0.9,0,1.7,0.2,2.3,0.5
						s1,1,1,2v3.7c0,0.3,0,0.6,0,0.9c0,0.3,0.1,0.5,0.1,0.6s0.2,0.2,0.3,0.2v0.3h-2.3c-0.1-0.2-0.1-0.3-0.1-0.5s0-0.3-0.1-0.5
						c-0.3,0.3-0.6,0.6-1,0.8c-0.5,0.3-1,0.4-1.5,0.4c-0.7,0-1.3-0.2-1.8-0.6c-0.5-0.4-0.7-1-0.7-1.8c0-1,0.4-1.7,1.1-2.1
						c0.4-0.2,1-0.4,1.8-0.5L85.3,104.8z M86.6,105.8c-0.1,0.1-0.3,0.2-0.4,0.2c-0.1,0.1-0.3,0.1-0.6,0.1l-0.5,0.1
						c-0.4,0.1-0.8,0.2-1,0.3c-0.3,0.2-0.5,0.5-0.5,0.9c0,0.4,0.1,0.6,0.3,0.8c0.2,0.2,0.4,0.2,0.7,0.2c0.5,0,0.9-0.1,1.3-0.4
						c0.4-0.3,0.6-0.7,0.6-1.4V105.8z"/>
					<path class="st0" d="M99,104c0.5,0.6,0.8,1.4,0.8,2.4c0,1.1-0.3,2-0.8,2.6c-0.5,0.6-1.2,0.9-2,0.9c-0.5,0-0.9-0.1-1.3-0.4
						c-0.2-0.1-0.4-0.3-0.5-0.6v3.3h-1.7v-8.9h1.6v0.9c0.2-0.3,0.4-0.5,0.6-0.7c0.4-0.3,0.8-0.4,1.3-0.4
						C97.9,103.1,98.5,103.4,99,104z M97.7,105.2c-0.2-0.4-0.6-0.6-1.1-0.6c-0.6,0-1,0.3-1.3,0.9c-0.1,0.3-0.2,0.7-0.2,1.2
						c0,0.7,0.2,1.3,0.6,1.6c0.2,0.2,0.5,0.3,0.8,0.3c0.5,0,0.8-0.2,1.1-0.5c0.2-0.4,0.4-0.8,0.4-1.4C98.1,106,98,105.5,97.7,105.2z
						"/>
					<path class="st0" d="M105.2,103.4c0.4,0.2,0.8,0.5,1.1,0.9c0.3,0.4,0.4,0.8,0.5,1.3c0,0.3,0.1,0.7,0.1,1.3h-4.7
						c0,0.6,0.2,1.1,0.7,1.3c0.3,0.2,0.6,0.2,0.9,0.2c0.4,0,0.7-0.1,0.9-0.3c0.1-0.1,0.2-0.3,0.3-0.4h1.7c0,0.4-0.3,0.8-0.6,1.2
						c-0.6,0.6-1.4,0.9-2.4,0.9c-0.9,0-1.6-0.3-2.2-0.8c-0.6-0.5-1-1.4-1-2.6c0-1.1,0.3-2,0.9-2.5c0.6-0.6,1.3-0.9,2.3-0.9
						C104.2,103.1,104.7,103.2,105.2,103.4z M102.7,104.9c-0.2,0.2-0.4,0.6-0.4,1h2.9c0-0.4-0.2-0.8-0.4-1c-0.3-0.2-0.6-0.3-1-0.3
						C103.2,104.5,102.9,104.6,102.7,104.9z"/>
					<path class="st0" d="M112.8,103.6c0.4,0.3,0.6,0.9,0.6,1.7v4.3h-1.7v-3.9c0-0.3,0-0.6-0.1-0.8c-0.2-0.3-0.5-0.5-0.9-0.5
						c-0.6,0-0.9,0.2-1.2,0.7c-0.1,0.3-0.2,0.6-0.2,1v3.5h-1.7v-6.4h1.6v0.9c0.2-0.3,0.4-0.6,0.6-0.7c0.3-0.3,0.8-0.4,1.3-0.4
						C111.9,103.1,112.4,103.3,112.8,103.6z"/>
					<path class="st0" d="M118.4,103.4c0.3,0.2,0.5,0.4,0.7,0.7v-3h1.7v8.6h-1.6v-0.9c-0.2,0.4-0.5,0.7-0.8,0.8s-0.7,0.3-1.1,0.3
						c-0.7,0-1.4-0.3-1.9-0.9s-0.8-1.4-0.8-2.3c0-1.1,0.3-1.9,0.8-2.6s1.2-0.9,2-0.9C117.7,103.1,118.1,103.2,118.4,103.4z
						 M118.8,107.9c0.2-0.4,0.4-0.8,0.4-1.4c0-0.8-0.2-1.3-0.6-1.7c-0.2-0.2-0.5-0.3-0.8-0.3c-0.5,0-0.8,0.2-1.1,0.6
						s-0.3,0.8-0.3,1.4c0,0.6,0.1,1.1,0.3,1.4s0.6,0.5,1.1,0.5S118.5,108.3,118.8,107.9z"/>
					<path class="st0" d="M124.9,105.8c0.3,0,0.5-0.1,0.7-0.1c0.2-0.1,0.4-0.3,0.4-0.5c0-0.3-0.1-0.4-0.3-0.5
						c-0.2-0.1-0.5-0.1-0.8-0.1c-0.4,0-0.7,0.1-0.8,0.3c-0.1,0.1-0.2,0.3-0.2,0.6h-1.6c0-0.6,0.2-1,0.5-1.4c0.4-0.6,1.2-0.8,2.3-0.8
						c0.7,0,1.3,0.1,1.9,0.4c0.5,0.3,0.8,0.8,0.8,1.6v2.9c0,0.2,0,0.4,0,0.7c0,0.2,0,0.4,0.1,0.4s0.1,0.1,0.2,0.2v0.2h-1.8
						c-0.1-0.1-0.1-0.2-0.1-0.4s0-0.2,0-0.4c-0.2,0.2-0.5,0.5-0.8,0.6c-0.4,0.2-0.8,0.3-1.2,0.3c-0.6,0-1.1-0.2-1.4-0.5
						c-0.4-0.3-0.6-0.8-0.6-1.4c0-0.8,0.3-1.4,0.9-1.7c0.3-0.2,0.8-0.3,1.5-0.4L124.9,105.8z M125.9,106.6c-0.1,0.1-0.2,0.1-0.3,0.2
						c-0.1,0-0.3,0.1-0.4,0.1l-0.4,0.1c-0.4,0.1-0.6,0.1-0.8,0.2c-0.3,0.2-0.4,0.4-0.4,0.7c0,0.3,0.1,0.5,0.2,0.6
						c0.2,0.1,0.4,0.2,0.6,0.2c0.4,0,0.7-0.1,1-0.3s0.5-0.6,0.5-1.2V106.6z"/>
					<path class="st0" d="M134.1,103.6c0.4,0.3,0.6,0.9,0.6,1.7v4.3h-1.7v-3.9c0-0.3,0-0.6-0.1-0.8c-0.2-0.3-0.5-0.5-0.9-0.5
						c-0.6,0-0.9,0.2-1.2,0.7c-0.1,0.3-0.2,0.6-0.2,1v3.5H129v-6.4h1.6v0.9c0.2-0.3,0.4-0.6,0.6-0.7c0.3-0.3,0.8-0.4,1.3-0.4
						C133.2,103.1,133.7,103.3,134.1,103.6z"/>
					<path class="st0" d="M135.7,104.5v-1.2h0.9v-1.8h1.7v1.8h1v1.2h-1v3.4c0,0.3,0,0.4,0.1,0.5s0.3,0.1,0.6,0.1c0.1,0,0.1,0,0.2,0
						s0.1,0,0.2,0v1.2l-0.8,0c-0.8,0-1.3-0.1-1.6-0.4c-0.2-0.2-0.3-0.5-0.3-0.9v-3.9H135.7z"/>
					<path class="st0" d="M144.8,107.1c0,0.3,0.1,0.6,0.2,0.8c0.2,0.4,0.6,0.6,1.1,0.6c0.3,0,0.6-0.1,0.9-0.3s0.4-0.5,0.4-1
						c0-0.6-0.2-0.9-0.7-1.1c-0.3-0.1-0.7-0.2-1.2-0.2v-1.2c0.5,0,0.9-0.1,1.1-0.2c0.4-0.2,0.6-0.5,0.6-1c0-0.3-0.1-0.6-0.3-0.8
						c-0.2-0.2-0.5-0.3-0.8-0.3c-0.4,0-0.7,0.1-0.9,0.4c-0.2,0.2-0.3,0.6-0.3,1h-1.6c0-0.4,0.1-0.8,0.2-1.2c0.1-0.3,0.4-0.6,0.6-0.9
						c0.2-0.2,0.5-0.4,0.8-0.5c0.3-0.1,0.7-0.2,1.1-0.2c0.8,0,1.5,0.2,2,0.6c0.5,0.4,0.7,1,0.7,1.7c0,0.5-0.1,0.9-0.4,1.3
						c-0.2,0.2-0.4,0.4-0.6,0.4c0.2,0,0.4,0.1,0.7,0.4c0.4,0.4,0.6,0.9,0.6,1.6c0,0.7-0.2,1.4-0.7,1.9c-0.5,0.5-1.2,0.8-2.2,0.8
						c-1.2,0-2-0.4-2.5-1.2c-0.2-0.4-0.4-1-0.4-1.6H144.8z"/>
					<path class="st0" d="M161.6,103.3c0.3,0.1,0.5,0.3,0.7,0.6c0.2,0.2,0.3,0.5,0.4,0.8c0,0.2,0.1,0.5,0.1,0.9l0,4h-1.7v-4.1
						c0-0.2,0-0.4-0.1-0.6c-0.1-0.3-0.4-0.4-0.8-0.4c-0.5,0-0.8,0.2-1,0.6c-0.1,0.2-0.1,0.4-0.1,0.7v3.8h-1.7v-3.8
						c0-0.4,0-0.7-0.1-0.8c-0.1-0.3-0.4-0.5-0.8-0.5c-0.5,0-0.8,0.2-1,0.5c-0.1,0.2-0.1,0.4-0.1,0.8v3.8h-1.7v-6.4h1.6v0.9
						c0.2-0.3,0.4-0.6,0.6-0.7c0.3-0.2,0.7-0.4,1.3-0.4c0.5,0,0.9,0.1,1.2,0.3c0.2,0.2,0.4,0.5,0.6,0.8c0.2-0.4,0.5-0.7,0.8-0.8
						c0.3-0.2,0.7-0.3,1.1-0.3C161.1,103.1,161.4,103.2,161.6,103.3z"/>
					<path class="st0" d="M169.7,108.9c-0.5,0.7-1.4,1-2.5,1s-1.9-0.3-2.5-1s-0.8-1.5-0.8-2.4c0-0.9,0.3-1.7,0.8-2.4
						c0.5-0.7,1.4-1,2.5-1s1.9,0.3,2.5,1c0.5,0.7,0.8,1.5,0.8,2.4C170.5,107.4,170.2,108.2,169.7,108.9z M168.3,108
						c0.3-0.3,0.4-0.8,0.4-1.5s-0.1-1.1-0.4-1.5c-0.3-0.3-0.6-0.5-1.1-0.5s-0.9,0.2-1.1,0.5c-0.3,0.3-0.4,0.8-0.4,1.5
						s0.1,1.1,0.4,1.5s0.6,0.5,1.1,0.5S168.1,108.3,168.3,108z"/>
					<path class="st0" d="M173.4,102.5h-1.7V101h1.7V102.5z M171.7,103.3h1.7v6.4h-1.7V103.3z"/>
					<path class="st0" d="M176.3,107.6c0,0.3,0.1,0.5,0.2,0.6c0.2,0.2,0.6,0.3,1.2,0.3c0.3,0,0.6,0,0.8-0.1s0.3-0.2,0.3-0.4
						c0-0.2-0.1-0.3-0.2-0.4c-0.2-0.1-0.7-0.3-1.7-0.5c-0.7-0.2-1.2-0.4-1.5-0.7c-0.3-0.3-0.4-0.6-0.4-1.1c0-0.6,0.2-1.1,0.7-1.5
						c0.5-0.4,1.1-0.6,2-0.6c0.8,0,1.4,0.2,2,0.5s0.8,0.9,0.9,1.6h-1.7c0-0.2-0.1-0.4-0.2-0.5c-0.2-0.2-0.5-0.3-0.9-0.3
						c-0.4,0-0.6,0.1-0.8,0.2c-0.2,0.1-0.2,0.2-0.2,0.4c0,0.2,0.1,0.3,0.2,0.4c0.2,0.1,0.7,0.2,1.7,0.5c0.7,0.2,1.2,0.4,1.5,0.7
						c0.3,0.3,0.5,0.7,0.5,1.2c0,0.6-0.2,1.1-0.7,1.5c-0.5,0.4-1.2,0.6-2.2,0.6c-1,0-1.7-0.2-2.2-0.6s-0.7-1-0.7-1.6H176.3z"/>
					<path class="st0" d="M181.6,111.1c0.3-0.1,0.6-0.2,0.7-0.5s0.2-0.5,0.3-0.9h-1v-1.8h1.8v1.5c0,0.3,0,0.5-0.1,0.8
						s-0.2,0.5-0.4,0.8c-0.2,0.2-0.5,0.4-0.7,0.5s-0.5,0.2-0.6,0.2V111.1z"/>
					<path class="st0" d="M193.7,104c0.5,0.6,0.8,1.4,0.8,2.4c0,1.1-0.3,2-0.8,2.6s-1.2,0.9-2,0.9c-0.5,0-0.9-0.1-1.3-0.4
						c-0.2-0.1-0.4-0.3-0.5-0.6v3.3h-1.7v-8.9h1.6v0.9c0.2-0.3,0.4-0.5,0.6-0.7c0.4-0.3,0.8-0.4,1.3-0.4
						C192.6,103.1,193.2,103.4,193.7,104z M192.4,105.2c-0.2-0.4-0.6-0.6-1.1-0.6c-0.6,0-1,0.3-1.3,0.9c-0.1,0.3-0.2,0.7-0.2,1.2
						c0,0.7,0.2,1.3,0.6,1.6c0.2,0.2,0.5,0.3,0.8,0.3c0.5,0,0.8-0.2,1.1-0.5s0.4-0.8,0.4-1.4C192.8,106,192.7,105.5,192.4,105.2z"/>
					<path class="st0" d="M197.3,103.3v3.8c0,0.4,0,0.6,0.1,0.8c0.2,0.3,0.4,0.5,0.9,0.5c0.6,0,1-0.2,1.2-0.7c0.1-0.2,0.2-0.6,0.2-1
						v-3.5h1.7v6.4h-1.6v-0.9c0,0-0.1,0.1-0.1,0.2c-0.1,0.1-0.1,0.2-0.2,0.3c-0.3,0.2-0.5,0.4-0.8,0.5s-0.5,0.1-0.9,0.1
						c-0.9,0-1.6-0.3-1.9-1c-0.2-0.4-0.3-0.9-0.3-1.7v-3.8H197.3z"/>
					<path class="st0" d="M204.7,102.5H203V101h1.7V102.5z M203,103.3h1.7v6.4H203V103.3z"/>
					<path class="st0" d="M207.6,107.6c0,0.3,0.1,0.5,0.2,0.6c0.2,0.2,0.6,0.3,1.2,0.3c0.3,0,0.6,0,0.8-0.1s0.3-0.2,0.3-0.4
						c0-0.2-0.1-0.3-0.2-0.4c-0.2-0.1-0.7-0.3-1.7-0.5c-0.7-0.2-1.2-0.4-1.5-0.7c-0.3-0.3-0.4-0.6-0.4-1.1c0-0.6,0.2-1.1,0.7-1.5
						c0.5-0.4,1.1-0.6,2-0.6c0.8,0,1.4,0.2,2,0.5s0.8,0.9,0.9,1.6h-1.7c0-0.2-0.1-0.4-0.2-0.5c-0.2-0.2-0.5-0.3-0.9-0.3
						c-0.4,0-0.6,0.1-0.8,0.2c-0.2,0.1-0.2,0.2-0.2,0.4c0,0.2,0.1,0.3,0.2,0.4c0.2,0.1,0.7,0.2,1.7,0.5c0.7,0.2,1.2,0.4,1.5,0.7
						c0.3,0.3,0.5,0.7,0.5,1.2c0,0.6-0.2,1.1-0.7,1.5c-0.5,0.4-1.2,0.6-2.2,0.6c-1,0-1.7-0.2-2.2-0.6s-0.7-1-0.7-1.6H207.6z"/>
					<path class="st0" d="M217.5,107.4c0.1,0.4,0.2,0.6,0.4,0.8s0.5,0.3,0.8,0.3c0.4,0,0.7-0.1,0.9-0.4c0.2-0.3,0.3-0.7,0.3-1.1
						c0-0.4-0.1-0.8-0.3-1.1c-0.2-0.3-0.5-0.4-0.9-0.4c-0.2,0-0.4,0-0.5,0.1c-0.3,0.1-0.5,0.3-0.6,0.5l-1.5-0.1l0.6-4.7h4.7v1.4
						h-3.5l-0.3,1.9c0.3-0.2,0.5-0.3,0.6-0.3c0.2-0.1,0.5-0.1,0.9-0.1c0.7,0,1.3,0.2,1.8,0.7s0.8,1.2,0.8,2.1c0,0.8-0.3,1.5-0.8,2.1
						c-0.5,0.6-1.3,0.9-2.3,0.9c-0.8,0-1.5-0.2-2-0.7c-0.5-0.4-0.8-1-0.9-1.8H217.5z"/>
					<path class="st0" d="M227.8,102.3c0.4,0.8,0.7,1.8,0.7,3.2s-0.2,2.5-0.7,3.2s-1.2,1.1-2.3,1.1s-1.8-0.4-2.3-1.1
						s-0.7-1.8-0.7-3.2s0.2-2.5,0.7-3.2s1.2-1.1,2.3-1.1S227.4,101.5,227.8,102.3z M224.6,107.7c0.2,0.5,0.5,0.8,1,0.8
						s0.8-0.3,1-0.8s0.2-1.3,0.2-2.2c0-1-0.1-1.8-0.2-2.3s-0.5-0.7-1-0.7s-0.8,0.2-1,0.7s-0.2,1.2-0.2,2.3
						C224.3,106.5,224.4,107.2,224.6,107.7z"/>
					<path class="st0" d="M241,103.3c0.3,0.1,0.5,0.3,0.7,0.6c0.2,0.2,0.3,0.5,0.4,0.8c0,0.2,0.1,0.5,0.1,0.9l0,4h-1.7v-4.1
						c0-0.2,0-0.4-0.1-0.6c-0.1-0.3-0.4-0.4-0.8-0.4c-0.5,0-0.8,0.2-1,0.6c-0.1,0.2-0.1,0.4-0.1,0.7v3.8h-1.7v-3.8
						c0-0.4,0-0.7-0.1-0.8c-0.1-0.3-0.4-0.5-0.8-0.5c-0.5,0-0.8,0.2-1,0.5c-0.1,0.2-0.1,0.4-0.1,0.8v3.8H233v-6.4h1.6v0.9
						c0.2-0.3,0.4-0.6,0.6-0.7c0.3-0.2,0.7-0.4,1.3-0.4c0.5,0,0.9,0.1,1.2,0.3c0.2,0.2,0.4,0.5,0.6,0.8c0.2-0.4,0.5-0.7,0.8-0.8
						c0.3-0.2,0.7-0.3,1.1-0.3C240.4,103.1,240.7,103.2,241,103.3z"/>
					<path class="st0" d="M247.9,103.4c0.4,0.2,0.8,0.5,1.1,0.9c0.3,0.4,0.4,0.8,0.5,1.3c0,0.3,0.1,0.7,0.1,1.3h-4.7
						c0,0.6,0.2,1.1,0.7,1.3c0.3,0.2,0.6,0.2,0.9,0.2c0.4,0,0.7-0.1,0.9-0.3c0.1-0.1,0.2-0.3,0.3-0.4h1.7c0,0.4-0.3,0.8-0.6,1.2
						c-0.6,0.6-1.4,0.9-2.4,0.9c-0.9,0-1.6-0.3-2.2-0.8s-1-1.4-1-2.6c0-1.1,0.3-2,0.9-2.5s1.3-0.9,2.3-0.9
						C246.9,103.1,247.4,103.2,247.9,103.4z M245.4,104.9c-0.2,0.2-0.4,0.6-0.4,1h2.9c0-0.4-0.2-0.8-0.4-1c-0.3-0.2-0.6-0.3-1-0.3
						C245.9,104.5,245.6,104.6,245.4,104.9z M248.3,100.7l-1.8,1.8h-1.2l1.1-1.8H248.3z"/>
					<path class="st0" d="M253.5,103.3c0.4,0.2,0.7,0.5,1,0.9v-0.9h1.6v6.1c0,0.8-0.1,1.4-0.4,1.9c-0.5,0.7-1.4,1.1-2.7,1.1
						c-0.8,0-1.5-0.2-2-0.5s-0.8-0.8-0.9-1.4h1.8c0,0.2,0.1,0.3,0.2,0.4c0.2,0.2,0.5,0.2,0.9,0.2c0.6,0,1-0.2,1.2-0.6
						c0.1-0.3,0.2-0.7,0.2-1.3v-0.4c-0.2,0.3-0.3,0.5-0.5,0.6c-0.3,0.3-0.8,0.4-1.3,0.4c-0.8,0-1.5-0.3-2-0.9s-0.7-1.4-0.7-2.3
						c0-0.9,0.2-1.7,0.7-2.4s1.1-1,2-1C253,103.1,253.3,103.2,253.5,103.3z M254.1,107.9c0.3-0.3,0.4-0.8,0.4-1.4
						c0-0.6-0.1-1.1-0.4-1.4s-0.6-0.5-1-0.5c-0.6,0-1,0.3-1.2,0.8c-0.1,0.3-0.2,0.7-0.2,1.1c0,0.4,0.1,0.7,0.2,1
						c0.2,0.5,0.6,0.8,1.2,0.8C253.5,108.3,253.8,108.1,254.1,107.9z"/>
					<path class="st0" d="M260.2,105.8c0.3,0,0.5-0.1,0.7-0.1c0.2-0.1,0.4-0.3,0.4-0.5c0-0.3-0.1-0.4-0.3-0.5
						c-0.2-0.1-0.5-0.1-0.8-0.1c-0.4,0-0.7,0.1-0.8,0.3c-0.1,0.1-0.2,0.3-0.2,0.6h-1.6c0-0.6,0.2-1,0.5-1.4c0.4-0.6,1.2-0.8,2.3-0.8
						c0.7,0,1.3,0.1,1.9,0.4c0.5,0.3,0.8,0.8,0.8,1.6v2.9c0,0.2,0,0.4,0,0.7c0,0.2,0,0.4,0.1,0.4s0.1,0.1,0.2,0.2v0.2h-1.8
						c-0.1-0.1-0.1-0.2-0.1-0.4s0-0.2,0-0.4c-0.2,0.2-0.5,0.5-0.8,0.6c-0.4,0.2-0.8,0.3-1.2,0.3c-0.6,0-1.1-0.2-1.4-0.5
						c-0.4-0.3-0.6-0.8-0.6-1.4c0-0.8,0.3-1.4,0.9-1.7c0.3-0.2,0.8-0.3,1.5-0.4L260.2,105.8z M261.2,106.6c-0.1,0.1-0.2,0.1-0.3,0.2
						c-0.1,0-0.3,0.1-0.4,0.1l-0.4,0.1c-0.4,0.1-0.6,0.1-0.8,0.2c-0.3,0.2-0.4,0.4-0.4,0.7c0,0.3,0.1,0.5,0.2,0.6
						c0.2,0.1,0.4,0.2,0.6,0.2c0.4,0,0.7-0.1,1-0.3c0.3-0.2,0.5-0.6,0.5-1.2V106.6z"/>
				</g>
			</g>
			<g>
				<path class="st2" d="M103.8,180.6v-1.3c0.6,0,1-0.1,1.3-0.1c0.4-0.1,0.7-0.3,1-0.5c0.2-0.2,0.3-0.4,0.4-0.7
					c0.1-0.2,0.1-0.3,0.1-0.4h1.6v9.9h-2v-6.8H103.8z"/>
				<path class="st2" d="M117.1,178.8c0.5,0.9,0.8,2.2,0.8,3.8s-0.3,2.9-0.8,3.8c-0.5,0.9-1.4,1.3-2.7,1.3c-1.3,0-2.1-0.4-2.7-1.3
					c-0.5-0.9-0.8-2.1-0.8-3.8s0.3-2.9,0.8-3.8c0.5-0.9,1.4-1.3,2.7-1.3C115.7,177.4,116.6,177.9,117.1,178.8z M113.3,185.2
					c0.2,0.6,0.6,0.9,1.1,0.9c0.6,0,1-0.3,1.1-0.9c0.2-0.6,0.3-1.5,0.3-2.6c0-1.2-0.1-2.1-0.3-2.7c-0.2-0.6-0.6-0.9-1.1-0.9
					c-0.6,0-1,0.3-1.1,0.9c-0.2,0.6-0.3,1.5-0.3,2.7C113,183.7,113.1,184.6,113.3,185.2z"/>
				<path class="st2" d="M124.9,178.8c0.5,0.9,0.8,2.2,0.8,3.8s-0.3,2.9-0.8,3.8c-0.5,0.9-1.4,1.3-2.7,1.3c-1.3,0-2.1-0.4-2.7-1.3
					c-0.5-0.9-0.8-2.1-0.8-3.8s0.3-2.9,0.8-3.8c0.5-0.9,1.4-1.3,2.7-1.3C123.5,177.4,124.4,177.9,124.9,178.8z M121.1,185.2
					c0.2,0.6,0.6,0.9,1.1,0.9c0.6,0,1-0.3,1.1-0.9c0.2-0.6,0.3-1.5,0.3-2.6c0-1.2-0.1-2.1-0.3-2.7c-0.2-0.6-0.6-0.9-1.1-0.9
					c-0.6,0-1,0.3-1.1,0.9c-0.2,0.6-0.3,1.5-0.3,2.7C120.8,183.7,120.9,184.6,121.1,185.2z"/>
			</g>
			<g>
				<path class="st2" d="M179.2,180.6v-1.3c0.6,0,1-0.1,1.3-0.1c0.4-0.1,0.7-0.3,1-0.5c0.2-0.2,0.3-0.4,0.4-0.7
					c0-0.2,0.1-0.3,0.1-0.4h1.6v9.9h-2v-6.8H179.2z"/>
				<path class="st2" d="M192.5,178.8c0.5,0.9,0.8,2.2,0.8,3.8s-0.3,2.9-0.8,3.8c-0.5,0.9-1.4,1.3-2.7,1.3c-1.3,0-2.1-0.4-2.7-1.3
					c-0.5-0.9-0.8-2.1-0.8-3.8s0.3-2.9,0.8-3.8c0.5-0.9,1.4-1.3,2.7-1.3C191.1,177.4,192,177.9,192.5,178.8z M188.7,185.2
					c0.2,0.6,0.6,0.9,1.1,0.9c0.6,0,1-0.3,1.1-0.9c0.2-0.6,0.3-1.5,0.3-2.6c0-1.2-0.1-2.1-0.3-2.7c-0.2-0.6-0.6-0.9-1.1-0.9
					c-0.6,0-1,0.3-1.1,0.9c-0.2,0.6-0.3,1.5-0.3,2.7C188.4,183.7,188.5,184.6,188.7,185.2z"/>
				<path class="st2" d="M200.3,178.8c0.5,0.9,0.8,2.2,0.8,3.8s-0.3,2.9-0.8,3.8c-0.5,0.9-1.4,1.3-2.7,1.3c-1.3,0-2.1-0.4-2.7-1.3
					c-0.5-0.9-0.8-2.1-0.8-3.8s0.3-2.9,0.8-3.8c0.5-0.9,1.4-1.3,2.7-1.3C198.9,177.4,199.8,177.9,200.3,178.8z M196.5,185.2
					c0.2,0.6,0.6,0.9,1.1,0.9c0.6,0,1-0.3,1.1-0.9c0.2-0.6,0.3-1.5,0.3-2.6c0-1.2-0.1-2.1-0.3-2.7c-0.2-0.6-0.6-0.9-1.1-0.9
					c-0.6,0-1,0.3-1.1,0.9c-0.2,0.6-0.3,1.5-0.3,2.7C196.2,183.7,196.3,184.6,196.5,185.2z"/>
			</g>
		</g>
		<g>
			<path class="st2" d="M73.3,43.7c2.8,0,5.2,0.8,7.3,2.4c2.1,1.6,3.1,3.7,3.1,6.1c0,1.5-0.4,2.8-1.1,3.9c-0.7,1.1-1.8,1.9-3.2,2.4
				v0.1c1.7,0.4,3.1,1.2,4,2.5c1,1.3,1.4,2.8,1.4,4.5c0,3-1.1,5.5-3.3,7.3s-4.9,2.8-8.2,2.8c-3.5,0-6.3-1-8.3-3
				c-2.1-2-3.1-4.6-3.1-8v-0.4h6c0.1,1.9,0.6,3.4,1.6,4.5c0.9,1.1,2.2,1.6,3.9,1.6c1.5,0,2.7-0.5,3.6-1.4s1.4-2.1,1.4-3.5
				c0-1.5-0.5-2.7-1.4-3.4c-0.9-0.8-2.6-1.1-5.1-1.1h-0.7v-4.4l1.1,0c1.8,0,3.1-0.3,4.1-1c1-0.7,1.4-1.6,1.4-2.9
				c0-1.2-0.4-2.2-1.2-3c-0.8-0.8-1.9-1.1-3.1-1.1c-1.4,0-2.5,0.5-3.4,1.4c-0.9,0.9-1.3,2.3-1.3,4.1h-6c0.1-3.2,1.1-5.8,3.1-7.8
				C67.6,44.6,70.1,43.7,73.3,43.7z"/>
			<path class="st2" d="M105.4,44.3v18.6h4.1V68h-4.1v7.2h-5.9V68H86.3v-5.7l13.4-18H105.4z M99.3,52.2l-8,10.7h8.1V52.2H99.3z"/>
			<path class="st2" d="M122,43.7c3.9,0,6.8,1.4,8.8,4.2c2,2.8,3,6.7,3,11.8c0,4.7-1.1,8.5-3.2,11.6c-2.2,3.1-5.1,4.6-8.9,4.6
				c-2.7,0-4.9-0.8-6.7-2.3c-1.8-1.5-2.9-3.6-3.3-6.3h6c0.2,1.2,0.7,2.1,1.5,2.8c0.8,0.7,1.6,1.1,2.7,1.1c1.7,0,3-0.8,4-2.4
				c1-1.6,1.6-3.9,1.9-7l-0.1-0.1c-0.8,1.2-1.8,2-2.9,2.6s-2.5,0.8-4,0.8c-1.7,0-3.3-0.5-4.9-1.4c-1.6-0.9-2.7-2.2-3.5-3.7
				s-1.1-3.2-1.1-5c0-3.2,1-5.9,3-8S118.8,43.7,122,43.7z M117.4,54.5c0,1.7,0.4,3.1,1.3,4.2c0.8,1.1,2,1.7,3.4,1.7
				c1.5,0,2.7-0.5,3.6-1.6c0.9-1,1.4-2.4,1.4-4.2c0-1.6-0.5-3-1.4-4.1c-0.9-1.1-2.1-1.7-3.6-1.7c-1.3,0-2.5,0.5-3.4,1.6
				C117.8,51.6,117.4,52.9,117.4,54.5z"/>
		</g>
	</g>
	<path class="st2" d="M49.5,197.4c0.8,0,1.7,0.3,2.3,0.8c0.6,0.4,1,1.2,1,1.9c0,0.4-0.1,0.9-0.3,1.3c-0.2,0.4-0.6,0.6-1,0.7l0,0
		c0.5,0.1,1,0.4,1.3,0.8c0.3,0.4,0.5,0.9,0.5,1.4c0,0.9-0.3,1.7-1,2.3s-1.7,0.9-2.6,0.9c-1,0.1-1.9-0.3-2.7-0.9
		c-0.7-0.7-1-1.6-1-2.5V204h1.9c0,0.5,0.2,1,0.5,1.4c0.7,0.6,1.7,0.7,2.4,0.1c0.3-0.3,0.5-0.7,0.4-1.1c0.1-0.5-0.1-0.9-0.5-1.2
		c-0.4-0.2-0.9-0.3-1.4-0.3H49v-1.4h0.4c0.4,0,0.9-0.1,1.3-0.3c0.3-0.2,0.5-0.6,0.4-0.9c0-0.4-0.1-0.8-0.4-1c-0.3-0.2-0.6-0.3-1-0.3
		s-0.8,0.1-1.1,0.5s-0.4,0.8-0.4,1.3h-2c0-0.9,0.4-1.8,1-2.5S48.6,197.3,49.5,197.4z"/>
	<path class="st2" d="M56.2,197.4v3.8l0,0c0.5-0.7,1.3-1.2,2.1-1.2c0.7-0.1,1.5,0.2,2,0.7c0.5,0.6,0.7,1.4,0.6,2.2v4.5H59v-4.1
		c0-0.5-0.1-0.9-0.3-1.3c-0.2-0.3-0.6-0.5-1-0.4c-0.4,0-0.9,0.2-1.2,0.5c-0.3,0.5-0.4,1-0.4,1.6v3.8h-2v-10L56.2,197.4z"/>
	<path class="st2" d="M127.1,279.8c0.9-0.1,1.7,0.3,2.3,1c1.1,2.4,1.1,5.1,0,7.5c-0.6,0.7-1.4,1.1-2.3,1c-0.9,0.1-1.8-0.3-2.3-1
		c-0.6-1.1-0.9-2.4-0.8-3.7c-0.1-1.3,0.2-2.6,0.8-3.7C125.3,280.1,126.2,279.7,127.1,279.8z M125.1,284.5c-0.1,1,0.1,2,0.5,2.9
		c0.3,0.5,0.9,0.9,1.5,0.8c0.6,0,1.2-0.3,1.5-0.9c0.4-0.9,0.5-1.9,0.4-2.9c0-0.8,0-1.5-0.2-2.2c-0.1-0.4-0.3-0.8-0.6-1.2
		c-0.7-0.6-1.8-0.5-2.4,0.2l-0.1,0.1C125.2,282.4,125,283.5,125.1,284.5z"/>
	<path class="st2" d="M138.7,279.7c2.2-0.3,4.2,1.3,4.4,3.5c0,0.3,0,0.7,0,1c0,3.3-1.5,4.9-4.4,4.9h-3.3v-9.4H138.7z M138.8,288
		c0.9,0,1.7-0.3,2.3-1c0.6-0.8,0.9-1.8,0.8-2.7c0.1-1-0.2-1.9-0.8-2.7c-0.6-0.6-1.4-0.9-2.3-0.9h-2.2v7.3L138.8,288z"/>
	<path class="st2" d="M145.6,279.7v3.6l0,0c0.2-0.4,0.5-0.7,0.8-0.9c0.4-0.2,0.9-0.3,1.3-0.3c1.6,0,2.3,0.8,2.3,2.4v4.5h-1v-4.6
		c0-0.7-0.5-1.3-1.2-1.3h-0.2c-0.6,0-1.1,0.2-1.5,0.6s-0.5,1-0.5,1.5v3.9h-1.1v-9.4L145.6,279.7z"/>
	<path class="st2" d="M151.1,301c0.9,0,1.6,0.3,2.1,0.9s0.7,1.8,0.7,3.4s-0.2,2.8-0.7,3.4s-1.2,0.9-2.1,0.9c-1,0-1.7-0.3-2.1-1
		c-0.5-0.6-0.7-1.8-0.7-3.4s0.2-2.8,0.7-3.4S150.2,301,151.1,301z M149.3,305.3c0,1.3,0.1,2.2,0.4,2.7s0.7,0.8,1.3,0.8
		s1.1-0.3,1.3-0.8c0.3-0.5,0.4-1.4,0.4-2.6c0-0.9-0.1-1.6-0.2-2c-0.1-0.5-0.3-0.8-0.6-1.1c-0.3-0.2-0.6-0.4-1-0.4
		c-0.5,0-1,0.2-1.3,0.7C149.5,303,149.3,303.9,149.3,305.3z"/>
	<path class="st2" d="M161.8,300.9c1.3,0,2.3,0.3,3,1s1,1.7,1,3.1c0,3-1.3,4.5-4,4.5h-3v-8.6H161.8z M161.8,308.5
		c0.9,0,1.6-0.3,2.1-0.9s0.7-1.4,0.7-2.5s-0.2-2-0.7-2.5s-1.2-0.8-2.1-0.8h-2v6.6L161.8,308.5L161.8,308.5z"/>
	<path class="st2" d="M168,300.9v3.3l0,0c0.1-0.3,0.4-0.6,0.8-0.8c0.4-0.2,0.8-0.3,1.2-0.3c1.4,0,2.1,0.7,2.1,2.2v4.1h-1v-4.2
		c0-0.3-0.1-0.6-0.3-0.9c-0.2-0.2-0.5-0.3-0.9-0.3c-0.6,0-1,0.2-1.3,0.5c-0.3,0.4-0.5,0.8-0.5,1.4v3.5h-1v-8.6L168,300.9L168,300.9z
		"/>
</g>
</svg>
